<?xml version="1.0" encoding="UTF-8"?>
<svg width="26px" height="26px" viewBox="0 0 26 26" version="1.1" xmlns="http://www.w3.org/2000/svg" xmlns:xlink="http://www.w3.org/1999/xlink">
    <!-- Generator: Sketch 52.5 (67469) - http://www.bohemiancoding.com/sketch -->
    <title>facebook</title>
    <desc>Created with Sketch.</desc>
    <g id="Symbols" stroke="none" stroke-width="1" fill="none" fill-rule="evenodd">
        <g id="social-footer" transform="translate(-2.000000, -3.000000)">
            <g id="facebook">
                <g transform="translate(0.000000, 1.000000)">
                    <g id="Bounding_Boxes">
                        <polygon id="Shape" points="0 0 30 0 30 30 0 30"></polygon>
                    </g>
                    <path d="M17.1,13.75 L15.4,13.75 C15.1790861,13.75 15,13.5709139 15,13.35 L15,12.5 C15,10.4289322 16.6789322,8.75 18.75,8.75 L20.85,8.75 C21.0709139,8.75 21.25,8.9290861 21.25,9.15 L21.25,10.85 C21.25,11.0709139 21.0709139,11.25 20.85,11.25 L18.75,11.25 C18.0596441,11.25 17.5,11.8096441 17.5,12.5 L17.5,13.35 C17.5,13.5709139 17.3209139,13.75 17.1,13.75 Z" id="c2/facebook" fill="#FF002E"></path>
                    <path d="M15,25 L15,17.5 L13,17.5 C12.7238576,17.5 12.5,17.2761424 12.5,17 L12.5,15.5 C12.5,15.2238576 12.7238576,15 13,15 L20.75,15 C21.0261424,15 21.25,15.2238576 21.25,15.5 L21.25,17 C21.25,17.2761424 21.0261424,17.5 20.75,17.5 L17.5,17.5 L17.5,25 L20,25 C22.7614237,25 25,22.7614237 25,20 L25,10 C25,7.23857625 22.7614237,5 20,5 L10,5 C7.23857625,5 5,7.23857625 5,10 L5,20 C5,22.7614237 7.23857625,25 10,25 L15,25 Z M10,2.5 L20,2.5 C24.1421356,2.5 27.5,5.85786438 27.5,10 L27.5,20 C27.5,24.1421356 24.1421356,27.5 20,27.5 L10,27.5 C5.85786438,27.5 2.5,24.1421356 2.5,20 L2.5,10 C2.5,5.85786438 5.85786438,2.5 10,2.5 Z" id="c1/facebook" fill="#000000"></path>
                </g>
            </g>
        </g>
    </g>
</svg>