<svg width="204" height="302" viewBox="0 0 204 302" xmlns="http://www.w3.org/2000/svg">
    <title>
        Group
    </title>
    <g fill="none" fill-rule="evenodd">
        <path d="M155.458 302H48.542C21.732 302 0 280.291 0 253.51V48.487C0 21.71 21.732 0 48.542 0h106.916C182.268 0 204 21.709 204 48.486v205.025C204 280.29 182.268 302 155.458 302" fill="#003BFA"/>
        <path d="M201.656 77.317c-2.899-28.778-21.27-56.953-47.922-68.831-1.723-1.282-3.66-2.38-5.968-3.362-5.88-2.502-12.186-3.802-18.496-4.62-13.24-1.713-27.818.808-38.463 9.558-8.066 6.63-10.829 21.32-3.73 29.716 7.106 8.405 18.717 4.569 28.51 5.093 6.282 2.591 12.183 6.365 15.495 12.495 3.947 7.302 3.736 16.028 4.345 24.083.536 7.08 1.388 14.192 3.143 21.085 2.994 11.755 9.513 25.343 21.463 30.152 12.365 4.976 24.69-5.116 31.578-14.636 8.471-11.714 11.482-26.483 10.045-40.733" fill="#3FB7FF"/>
        <path d="M111.951 58.03c-6.057-2.979-14.834-4.926-21.567-3.613-2.922.57-5.318 1.882-7.45 3.562a17.76 17.76 0 0 0-2.213 1.226c-6.348 4.23-11.707 9.418-18.568 12.973-6.99 3.622-14.532 5.938-22.331 7.093-7.29 1.077-14.822 1.55-21.488 4.948-5.295 2.7-9.616 7.07-12.629 12.102-6.904 11.528-7.476 27.9-2.073 40.118 9.73 21.995 38.811 28.588 57.31 13.097 11.073-9.272 14.098-24.347 20.915-36.403 4.126-7.299 9.51-14.075 16.616-18.764a36.706 36.706 0 0 1 10.03-4.64c3.35-.967 6.878-1.453 9.788-3.485 11.47-8.013 3.734-23.26-6.34-28.214" fill="#0D7DFA"/>
        <path d="M75.934 23.97c-.517-6.902-4.731-15.002-12.197-15.886-8.03-.952-13.263 6.398-16.781 12.605-2.512 4.429-4.931 9.985-9.912 11.989-5.667 2.28-12.291-1.464-18.058-2.088-4.711-.511-9.067.515-12.175 3.123-.013-.026-.045-.046-.066-.01-.023.041-.036.083-.058.125-2.252 1.945-3.835 4.735-4.373 8.42-.76 5.213-.254 11.505 2.773 15.71 1.38 2.333 3.233 4.42 5.46 6.162 2.542 1.985 5.261 3.312 8.1 4.255 1.142.528 2.333.98 3.573 1.348 17.974 5.318 35.08-6.793 44.937-21.15 4.875-7.1 9.447-15.652 8.777-24.604" fill="#FF007C"/>
        <path d="M178.539 204.703c-2.447-4.767-6.46-8.54-8.97-13.268-3.354-6.318-2.023-13.388-4.039-19.998-2.34-7.67-9.412-9.745-15.689-4.637-3.626 2.95-6.972 7.468-7.915 12.068-1.098 5.347 1.447 10.273 2.403 15.423 1.175 6.34-1.402 10.254-5.732 12.886-5.364 1.812-11.545 2.02-16.887 2.568-7.042.725-14.334 2.022-20.23 6.142-8.548 5.971-11.103 16.392-5.498 24.25 3.271 5.656 9.883 9.811 15.953 10.654 11.88 1.65 18.5-6.855 27.816-12.127 5.582-3.158 11.886-4.734 18.159-5.9 5.34-.99 11.124-1.441 15.912-4.214 8.313-4.81 8.713-16.06 4.717-23.847" fill="#0E80FB"/>
        <path d="M145.564 136.613c-3.265-2.679-7.205-4.705-9.335-8.548-2.48-4.47-2.151-10.13-2.481-15.09-.447-6.715-2.994-12.915-9.47-15.628-6.217-2.607-13.652-1.213-19.236 2.32-6.172 3.907-10.327 10.493-11.202 17.795-1.633 6.074-.931 12.737 2.51 18.189 4.209 6.667 10.25 8.603 17.654 8.637 6.717.035 9.436 3.579 13.15 8.589 2.092 2.822 4.692 4.757 8.081 5.656 5.903 1.567 12.049-.853 14.643-6.619 2.64-5.869.39-11.443-4.314-15.3" fill="#FFB838"/>
        <path d="M69.564 217.187c-4.86-8.534-11.403-13.156-20.063-17.38-5.18-2.527-10.494-4.975-14.749-8.978-4.722-4.446-4.927-10.2-8.081-15.394-.081-.133-.18-.26-.266-.392-.465-1.166-1.116-2.25-2.28-3.184-2.278-1.83-5.145-2.22-7.922-1.558C8.836 172.056 2.38 179.235.69 186.493c-3.706 15.914 8.16 27.372 20.736 35.015 3.33 2.496 6.797 4.851 9.953 7.561 7.785 6.688 10.195 16.43 16.58 24.09 4.384 5.26 11.165 9.45 18.175 7.235 6.749-2.134 11.024-9.261 11.737-16.036.984-9.381-3.79-19.24-8.306-27.171" fill="#3FB7FF"/>
        <path d="M128.888 176.064c-5.287-6.621-14.197-4.466-20.996-8.23-8.388-4.642-8.691-17.556-18.22-20.382-3.805-1.13-6.984-.03-9.66 2.07-9.343 4.298-15.641 17.6-16.78 26.503-1.761 13.797 6.617 28.966 21.264 31.571 8.548 1.52 18.123-1.578 26.262-3.902 6.684-1.908 14.195-4.474 18.481-10.254 3.818-5.146 3.653-12.36-.35-17.376" fill="#FF254E"/>
        <path d="M50.901 159.509c-2.596.96-4.224 3.163-6.974 3.813-2.233.53-4.276.524-6.103 2.154-1.096.976-1.807 2.228-2.205 3.582-2.613 5.728 3.537 13.873 9.262 15.425 3.605.976 7.104.867 8.408-2.981.554-1.634.304-3.556.812-5.256.53-1.776 1.467-3.408 2.194-5.1.961-2.24 1.845-4.553 1.686-7.044-.28-4.328-3.122-6.052-7.08-4.593" fill="#FF007C"/>
    </g>
</svg>
