<svg width="158" height="28" viewBox="0 0 158 28" fill="none" xmlns="http://www.w3.org/2000/svg">
<path d="M0 0H2.96702V28H0V0Z" fill="#292929"/>
<path d="M43.2928 28L36.8776 19C36.1559 19.08 35.4075 19.12 34.6323 19.12H27.0945V28H24.1274V0H34.6323C38.2141 0 41.0208 0.853333 43.0522 2.56C45.0837 4.26667 46.0995 6.61333 46.0995 9.6C46.0995 11.7867 45.5381 13.64 44.4155 15.16C43.3195 16.6533 41.7425 17.7333 39.6843 18.4L46.5405 28H43.2928ZM34.5521 16.6C37.332 16.6 39.4571 15.9867 40.9272 14.76C42.3974 13.5333 43.1324 11.8133 43.1324 9.6C43.1324 7.33333 42.3974 5.6 40.9272 4.4C39.4571 3.17333 37.332 2.56 34.5521 2.56H27.0945V16.6H34.5521Z" fill="#292929"/>
<path d="M65.1308 0H68.0978V28H65.1308V0Z" fill="#292929"/>
<path d="M112.714 0V28H110.268L92.2252 5.28V28H89.2582V0H91.704L109.787 22.72V0H112.714Z" fill="#292929"/>
<path d="M150.422 18.12H136.95L132.5 28H129.412L142.243 0H145.17L158 28H154.873L150.422 18.12ZM150.422 18.12L143.686 3.08L136.95 18.12H150.422Z" fill="#292929"/>
</svg>
