<?xml version="1.0" encoding="UTF-8"?>
<svg width="48px" height="36px" viewBox="0 0 48 36" version="1.1" xmlns="http://www.w3.org/2000/svg" xmlns:xlink="http://www.w3.org/1999/xlink">
    <title>quotes</title>
    <g id="Page-1" stroke="none" stroke-width="1" fill="none" fill-rule="evenodd">
        <g id="quotes" transform="translate(0.000000, -0.004000)" fill="#000000" fill-rule="nonzero">
            <path d="M45.187511,-2.66452485e-15 L2.81248901,-2.66452485e-15 C1.26168257,-2.66452485e-15 0,1.26205757 0,2.81333276 L0,33.4987129 C-0.000562497803,34.3363659 0.458810708,35.0733317 1.19887032,35.4220804 C1.48902543,35.5587673 1.79811798,35.6257046 2.10730427,35.6257046 C2.61692728,35.6257046 3.12692529,35.4437365 3.55236112,35.0918942 L7.42543974,31.8888442 L19.7808915,31.8888442 C20.298577,31.8888442 20.7183878,31.4691271 20.7183878,30.9513478 C20.7183878,30.4335686 20.298577,30.0138515 19.7808915,30.0138515 L7.08803481,30.0138515 C6.86997316,30.0138515 6.65866149,30.0898825 6.4905684,30.2289132 L2.35742829,33.6471186 C2.18483522,33.7898055 2.0484295,33.7497744 1.9979922,33.725962 C1.91511752,33.6869622 1.87499268,33.6130874 1.87499268,33.4995566 L1.87499268,2.81333276 C1.87499268,2.29592853 2.29555353,1.87499268 2.81248901,1.87499268 L45.187511,1.87499268 C45.7044465,1.87499268 46.1250073,2.29592853 46.1250073,2.81333276 L46.1250073,29.0755114 C46.1250073,29.5929157 45.7044465,30.0138515 45.187511,30.0138515 L28.2184523,30.0138515 C27.7007668,30.0138515 27.2809559,30.4335686 27.2809559,30.9513478 C27.2809559,31.4691271 27.7007668,31.8888442 28.2184523,31.8888442 L45.187511,31.8888442 C46.7383174,31.8888442 48,30.6267866 48,29.0755114 L48,2.81333276 C48,1.26205757 46.7383174,-2.66452485e-15 45.187511,-2.66452485e-15 Z" id="Path"></path>
            <path d="M19.7373917,7.50700193 L14.0597263,7.50700193 C12.4992637,7.50700193 11.2297061,8.77655947 11.2297061,10.3370221 L11.2297061,16.0145937 C11.2297061,17.5750563 12.4992637,18.8446139 14.0597263,18.8446139 L16.4155609,18.8446139 C16.5989352,19.2958309 16.4655294,19.9835782 16.0317499,20.7349815 C15.4524709,21.7381963 15.5833454,22.9322854 16.3573424,23.7062824 C16.8040594,24.1529994 17.3853071,24.3807173 18.0018984,24.3807173 C18.4737403,24.3807173 18.9662072,24.2474053 19.4347678,23.9768438 C22.5676931,22.1680384 22.5674118,18.3405221 22.5674118,16.0536873 L22.5674118,10.3370221 C22.5674118,8.77655947 21.2978543,7.50700193 19.7373917,7.50700193 Z M20.6924192,16.053781 C20.6925129,18.177304 20.6926067,21.0855114 18.4972715,22.3530064 C18.1583666,22.5486619 17.861649,22.5588806 17.6831497,22.3804751 C17.5493689,22.2466943 17.4719318,21.9904766 17.6554935,21.6724778 C18.6488647,19.9517971 18.6138023,18.296366 17.5615564,17.2441201 C17.3856821,17.0683396 17.1472768,16.9695275 16.8986527,16.9695275 L14.0598201,16.9695275 C13.5332284,16.9695275 13.1047926,16.5410916 13.1047926,16.0144999 L13.1047926,10.3369284 C13.1047926,9.81033668 13.5331346,9.38190085 14.0598201,9.38190085 L19.7374854,9.38190085 C20.2640771,9.38190085 20.6925129,9.81033668 20.6925129,10.3369284 L20.6925129,16.053781 L20.6924192,16.053781 Z" id="Shape"></path>
            <path d="M30.6183491,18.8446139 C30.8017234,19.2958309 30.6683177,19.9835782 30.2345381,20.7349815 C29.6552592,21.7381963 29.7861336,22.9322854 30.5601306,23.7062824 C31.0068476,24.1529994 31.5880954,24.3806235 32.2046867,24.3806235 C32.6764349,24.3806235 33.1689017,24.2473115 33.6374624,23.9767501 C36.7704814,22.1679447 36.7702001,18.3404284 36.7702001,16.0535935 L36.7702001,10.3369284 C36.7702001,8.77646572 35.5006426,7.50690818 33.9401799,7.50690818 L28.2625146,7.50690818 C26.7020519,7.50690818 25.4324944,8.77646572 25.4324944,10.3369284 L25.4324944,16.0144999 C25.4324944,17.5749626 26.7020519,18.8445201 28.2625146,18.8445201 L30.6183491,18.8445201 L30.6183491,18.8446139 Z M27.3075808,16.0145937 L27.3075808,10.3370221 C27.3075808,9.81043043 27.7359229,9.3819946 28.2626083,9.3819946 L33.9402737,9.3819946 C34.4668654,9.3819946 34.8953024,9.81043043 34.8953024,10.3370221 L34.8953024,16.053781 C34.8953949,18.1772102 34.8954887,21.0855114 32.7000598,22.3530064 C32.3609673,22.5486619 32.0644372,22.5587869 31.8860317,22.3804751 C31.752251,22.2466943 31.6748138,21.9904766 31.8583756,21.6724778 C32.8518404,19.9517971 32.8165906,18.2962723 31.7642509,17.2441201 C31.5884704,17.0683396 31.350065,16.9695275 31.101441,16.9695275 L28.2627021,16.9695275 C27.7360167,16.9696212 27.3075808,16.5411854 27.3075808,16.0145937 L27.3075808,16.0145937 Z" id="Shape"></path>
            <path d="M24,30.0139453 L23.9993438,30.0139453 C23.4816583,30.0139453 23.0622224,30.4336624 23.0622224,30.9514416 C23.0622224,31.4692208 23.4822208,31.8889379 24,31.8889379 C24.5177792,31.8889379 24.9374963,31.4692208 24.9374963,30.9514416 C24.9374963,30.4336624 24.5176855,30.0139453 24,30.0139453 Z" id="Path"></path>
        </g>
    </g>
</svg>