<svg xmlns="http://www.w3.org/2000/svg" width="1271pt" height="288pt" viewBox="0 0 1271 288"><path fill="#0b0204" opacity="1.00" d=" M 127.27 0.00 L 127.48 0.00 C 169.12 23.95 210.70 48.00 252.31 72.01 C 252.32 107.35 252.31 142.69 252.31 178.03 C 252.32 201.12 239.26 223.68 219.28 235.23 C 188.90 252.83 158.49 270.37 128.12 288.00 L 126.84 288.00 C 119.22 283.62 111.62 279.24 104.03 274.83 C 136.68 255.93 169.36 237.07 202.02 218.19 C 206.20 215.73 210.61 213.53 214.22 210.24 C 223.61 201.97 229.16 189.54 228.94 177.01 C 228.88 146.47 229.05 115.93 228.86 85.39 C 195.02 66.02 161.28 46.47 127.52 26.97 C 100.73 42.31 74.05 57.84 47.29 73.24 C 34.37 80.61 26.12 95.20 26.03 110.03 C 25.96 150.01 26.03 189.98 25.99 229.96 C 18.23 225.56 10.58 220.94 2.75 216.66 C 2.45 181.44 2.72 146.21 2.61 110.99 C 2.30 87.79 15.22 64.97 35.20 53.21 C 65.88 35.45 96.63 17.82 127.27 0.00 Z"></path><path fill="#e2183d" opacity="1.00" d=" M 127.41 50.33 C 154.52 65.91 181.61 81.54 208.69 97.17 C 208.67 124.12 208.71 151.06 208.68 178.00 C 208.67 186.08 203.91 193.88 196.88 197.80 C 166.70 214.95 136.59 232.24 106.38 249.35 C 106.36 233.97 106.39 218.59 106.37 203.21 C 127.13 191.38 147.93 179.63 168.69 167.80 C 168.68 151.97 168.69 136.15 168.69 120.33 C 154.89 112.41 141.18 104.35 127.32 96.54 C 113.69 104.57 99.94 112.38 86.26 120.31 C 86.23 168.40 86.27 216.48 86.24 264.57 C 72.91 256.92 59.62 249.19 46.28 241.55 C 46.21 198.02 46.27 154.49 46.25 110.96 C 46.02 102.76 50.58 94.68 57.67 90.57 C 80.92 77.16 104.18 63.77 127.41 50.33 Z"></path><path fill="#0b0204" opacity="1.00" d=" M 320.46 188.44 C 320.43 158.87 320.39 129.31 320.48 99.74 C 356.66 99.77 392.84 99.73 429.01 99.76 C 432.20 99.79 435.80 100.44 437.92 103.06 C 439.96 105.57 439.99 108.96 440.01 112.03 C 439.99 125.05 440.00 138.06 440.00 151.08 C 439.98 154.04 439.82 157.33 437.75 159.66 C 435.35 162.40 431.45 162.79 428.04 162.81 C 402.93 162.83 377.81 162.80 352.70 162.83 C 352.65 171.37 352.76 179.92 352.64 188.46 C 341.91 188.41 331.18 188.45 320.46 188.44 M 352.70 116.83 C 352.68 126.61 352.68 136.39 352.70 146.18 C 371.50 146.19 390.31 146.19 409.11 146.17 C 409.13 136.39 409.13 126.61 409.11 116.82 C 390.31 116.81 371.50 116.81 352.70 116.83 Z"></path><path fill="#0b0204" opacity="1.00" d=" M 467.30 100.51 C 469.13 99.89 471.09 99.77 473.01 99.74 C 507.34 99.76 541.66 99.74 575.99 99.75 C 579.19 99.77 582.77 100.38 584.97 102.95 C 586.87 105.16 587.14 108.20 587.13 111.00 C 587.11 133.34 587.14 155.69 587.12 178.03 C 587.11 180.72 586.59 183.65 584.62 185.63 C 582.38 187.91 579.02 188.41 575.98 188.44 C 541.64 188.44 507.29 188.43 472.94 188.45 C 469.65 188.45 465.96 187.95 463.65 185.35 C 461.41 182.82 461.37 179.23 461.37 176.04 C 461.41 154.02 461.32 132.00 461.41 109.98 C 461.24 106.02 463.20 101.63 467.30 100.51 M 493.95 116.83 C 493.94 135.00 493.93 153.18 493.95 171.36 C 514.14 171.39 534.34 171.36 554.53 171.38 C 554.52 153.18 554.70 134.96 554.44 116.76 C 534.28 116.89 514.11 116.77 493.95 116.83 Z"></path><path fill="#0b0204" opacity="1.00" d=" M 608.57 99.76 C 619.46 99.75 630.35 99.74 641.24 99.76 C 641.26 123.55 641.25 147.35 641.24 171.15 C 663.21 171.23 685.18 171.16 707.15 171.19 C 708.80 176.93 710.44 182.67 712.07 188.42 C 681.38 188.47 650.69 188.42 620.01 188.44 C 616.71 188.45 613.01 187.91 610.74 185.28 C 608.77 183.01 608.53 179.86 608.55 176.99 C 608.58 151.24 608.54 125.50 608.57 99.76 Z"></path><path fill="#0b0204" opacity="1.00" d=" M 710.80 99.76 C 721.57 99.78 732.35 99.67 743.12 99.82 C 746.12 110.67 749.22 121.50 752.24 132.35 C 769.08 132.36 785.93 132.43 802.77 132.32 C 802.72 121.47 802.75 110.61 802.76 99.76 C 813.65 99.74 824.54 99.74 835.43 99.76 C 835.45 125.50 835.44 151.24 835.43 176.98 C 835.40 180.28 834.94 184.01 832.32 186.32 C 829.79 188.58 826.19 188.59 823.01 188.58 C 793.67 188.51 764.32 188.59 734.98 188.39 C 733.36 182.64 731.67 176.92 730.05 171.19 C 754.29 171.17 778.52 171.21 802.75 171.16 C 802.75 163.72 802.75 156.27 802.75 148.83 C 779.15 148.77 755.55 148.87 731.96 148.78 C 728.19 148.82 724.08 146.85 723.07 142.95 C 718.87 128.59 714.89 114.16 710.80 99.76 Z"></path><path fill="#0b0204" opacity="1.00" d=" M 859.44 102.48 C 862.22 99.75 866.40 99.71 870.06 99.73 C 906.29 99.87 942.53 99.54 978.75 99.90 C 978.61 105.85 978.73 111.80 978.69 117.75 C 948.96 117.77 919.24 117.74 889.51 117.76 C 889.49 135.56 889.50 153.37 889.51 171.18 C 908.61 171.19 927.71 171.19 946.81 171.17 C 946.81 164.47 946.81 157.77 946.81 151.07 C 938.46 151.06 930.11 151.05 921.77 151.08 C 920.18 145.75 918.64 140.40 917.19 135.04 C 937.69 135.11 958.20 135.00 978.71 135.09 C 978.57 152.90 978.89 170.72 978.55 188.52 C 941.40 188.31 904.24 188.53 867.09 188.41 C 863.92 188.33 860.39 187.40 858.54 184.62 C 856.78 182.08 856.85 178.88 856.80 175.93 C 856.83 154.31 856.79 132.68 856.82 111.06 C 856.83 108.05 857.16 104.70 859.44 102.48 Z"></path><path fill="#0b0204" opacity="1.00" d=" M 1007.04 100.21 C 1009.96 99.55 1012.98 99.77 1015.97 99.75 C 1048.66 99.75 1081.36 99.76 1114.05 99.74 C 1117.31 99.74 1120.98 100.13 1123.38 102.61 C 1125.79 105.09 1125.87 108.78 1125.88 112.03 C 1125.88 133.37 1125.87 154.71 1125.88 176.06 C 1125.85 179.09 1125.86 182.45 1123.91 184.97 C 1121.83 187.67 1118.21 188.40 1115.00 188.43 C 1080.64 188.46 1046.28 188.42 1011.93 188.45 C 1008.60 188.47 1004.87 188.04 1002.49 185.46 C 1000.14 182.95 1000.12 179.28 1000.11 176.05 C 1000.16 154.02 1000.07 131.98 1000.16 109.94 C 999.90 105.59 1002.46 100.96 1007.04 100.21 M 1032.70 116.82 C 1032.68 135.00 1032.68 153.18 1032.70 171.36 C 1052.90 171.38 1073.10 171.38 1093.30 171.36 C 1093.31 153.18 1093.32 135.00 1093.30 116.82 C 1073.10 116.81 1052.90 116.81 1032.70 116.82 Z"></path><path fill="#0b0204" opacity="1.00" d=" M 1147.24 99.77 C 1184.16 99.72 1221.08 99.76 1257.99 99.75 C 1261.16 99.77 1264.73 100.36 1266.91 102.91 C 1269.06 105.40 1269.09 108.86 1269.13 111.98 C 1269.11 137.46 1269.14 162.95 1269.12 188.43 C 1258.23 188.45 1247.34 188.43 1236.46 188.44 C 1236.40 164.63 1236.46 140.82 1236.43 117.00 C 1217.34 117.01 1198.26 116.98 1179.18 117.01 C 1179.19 140.82 1179.19 164.62 1179.18 188.43 C 1168.57 188.49 1157.97 188.35 1147.37 188.50 C 1147.09 158.93 1147.33 129.35 1147.24 99.77 Z"></path></svg>