<?xml version="1.0" standalone="no"?>
<!DOCTYPE svg PUBLIC "-//W3C//DTD SVG 1.1//EN" "http://www.w3.org/Graphics/SVG/1.1/DTD/svg11.dtd" >
<svg xmlns="http://www.w3.org/2000/svg">
<defs>
  <font id="iNova" horiz-adv-x="496">
    <font-face font-family="iNova"
      units-per-em="256" ascent="256"
      descent="0" />
    <missing-glyph horiz-adv-x="0" />
    <glyph glyph-name="down-arrow"
      unicode="&#xEA02;"
      horiz-adv-x="256" d="M5.314 190.05C-0.172 186.705 -1.628 180.924 1.757 175.924C4.769 171.473 121.889 44.257 123.567 43.613C128.305 41.795 132.121 42.973 136.969 47.75C143.747 54.429 252.198 172.962 254.285 175.973C256.955 179.823 256.491 184.663 253.128 188.026C248.387 192.767 242.714 193.177 238.333 189.096C237.163 188.006 212.044 160.763 182.514 128.557C152.983 96.351 128.452 70 128 70C127.548 70 103.124 96.234 73.724 128.298C44.324 160.361 18.824 187.811 17.058 189.298C13.264 192.49 9.691 192.719 5.314 190.05" />
    <glyph glyph-name="star-rate"
      unicode="&#xEA03;"
      horiz-adv-x="256" d="M160 160L128 256L96 160L0 160L76.9706666666667 101.4613333333334L45.3333333333333 4.0746666666667L128 64.1386666666667L210.6666666666667 4.0746666666667L179.0293333333333 101.4613333333334L256 160L160 160z" />
    <glyph glyph-name="right-arrow"
      unicode="&#xEA04;"
      horiz-adv-x="256" d="M66.455 253.545C64.853 251.944 64 249.959 64 247.832C64 244.858 69.093 239.475 122.234 186.283L180.469 127.992L122.234 69.726C70.439 17.903 64 11.119 64 8.376C64 4.041 67.956 0 72.201 0C75.228 0 80.589 5.093 137.749 62.274C196.136 120.683 200 124.764 200 128.016C200 131.267 196.14 135.342 137.741 193.741C80.654 250.828 75.209 256 72.196 256C70.04 256 68.065 255.156 66.455 253.545" />
    <glyph glyph-name="e-add"
      unicode="&#xEA05;"
      horiz-adv-x="256" d="M122.217 243.439C116.999 239.785 117 239.795 117 187.577L117 139.054L66.917 138.777L16.835 138.5L13.917 135.234C8.911 129.63 10.33 121.949 17.011 118.494C19.458 117.229 27.33 117 68.423 117L116.946 117L117.223 66.917L117.5 16.835L120.766 13.917C125.283 9.882 130.717 9.882 135.234 13.917L138.5 16.835L138.777 66.917L139.054 117L187.577 117C228.67 117 236.542 117.229 238.989 118.494C245.67 121.949 247.089 129.63 242.083 135.234L239.165 138.5L189.083 138.777L139 139.054L139 187.059C139 238.595 138.885 239.866 133.883 243.369C130.935 245.434 125.115 245.469 122.217 243.439" />
    <glyph glyph-name="e-delete"
      unicode="&#xEA06;"
      horiz-adv-x="256" d="M17.388 138.027C11.776 135.741 9.138 127.103 12.561 122.217C16.384 116.758 11.027 117 128 117C221.949 117 236.478 117.196 238.989 118.494C245.67 121.949 247.089 129.63 242.082 135.234L239.164 138.5L129.332 138.693C68.924 138.8 18.55 138.5 17.388 138.027" />
    <glyph glyph-name="storage-unit"
      unicode="&#xEA07;"
      horiz-adv-x="256" d="M68.5 219.381C36.6 204.784 9.508 192.445 8.295 191.962C6.093 191.085 6.095 191.074 10.131 182.292C12.353 177.456 14.53 173.125 14.968 172.667C15.407 172.209 41.018 183.34 71.883 197.402L128 222.97L184.117 197.402C214.982 183.34 240.593 172.209 241.032 172.667C241.47 173.125 243.635 177.431 245.843 182.235L249.857 190.97L245.678 192.842C243.38 193.872 216.21 206.254 185.299 220.357C154.389 234.461 128.514 245.982 127.799 245.96C127.085 245.938 100.4 233.978 68.5 219.381M75 144L75 107L53.5 107L32 107L32 59L32 11L128 11L224 11L224 59L224 107L202.5 107L181 107L181 144L181 181L128 181L75 181L75 144M117 149.5L117 139L128 139L139 139L139 149.5L139 160L149.5 160L160 160L160 133.5L160 107L128 107L96 107L96 133.5L96 160L106.5 160L117 160L117 149.5M75 74.5L75 64L85.5 64L96 64L96 74.5L96 85L106.5 85L117 85L117 58.5L117 32L85 32L53 32L53 58.5L53 85L64 85L75 85L75 74.5M160 74.5L160 64L170.5 64L181 64L181 74.5L181 85L192 85L203 85L203 58.5L203 32L171 32L139 32L139 58.5L139 85L149.5 85L160 85L160 74.5" />
    <glyph glyph-name="support-email"
      unicode="&#xEA09;"
      horiz-adv-x="256" d="M16.008 238.684C10.952 237.074 2.438 228.401 1.102 223.5C-0.531 217.512 -0.424 54.168 1.216 48.616C2.839 43.123 11.123 34.839 16.616 33.216C22.56 31.46 233.44 31.46 239.384 33.216C244.877 34.839 253.161 43.123 254.784 48.616C256.424 54.168 256.531 217.512 254.898 223.5C253.463 228.762 244.998 237.095 239.384 238.771C233.778 240.445 21.278 240.362 16.008 238.684M237.545 221.545L240 219.091L240 136.191L240 53.292L237.548 50.646L235.095 48L128 48L20.905 48L18.452 50.646L16 53.292L16 136.191L16 219.091L18.455 221.545L20.909 224L128 224L235.091 224L237.545 221.545M36.365 190.831C33.301 189.347 31.673 185.763 32.452 182.216C32.998 179.73 41.261 172.537 79.105 141.598C116.146 111.316 125.66 104 128 104C130.34 104 139.854 111.316 176.895 141.598C225.656 181.462 226.032 181.836 222.996 187.508C221.681 189.965 218.054 192 214.991 192C213.938 192 194.271 176.608 171.288 157.797C148.305 138.985 128.825 123.593 128 123.593C127.175 123.593 107.695 138.985 84.712 157.797C56.729 180.701 42.193 191.978 40.712 191.932C39.495 191.895 37.539 191.399 36.365 190.831M46.288 105.712C34.118 93.542 32 90.969 32 88.358C32 84.047 35.966 80 40.191 80C43.09 80 45.155 81.688 57.738 94.349C70.121 106.807 72 109.119 72 111.894C72 116.199 68.171 120 63.834 120C60.976 120 58.824 118.247 46.288 105.712M186.455 117.545C184.872 115.963 184 113.955 184 111.894C184 109.119 185.879 106.807 198.262 94.349C210.845 81.688 212.91 80 215.809 80C220.034 80 224 84.047 224 88.358C224 90.969 221.882 93.542 209.712 105.712C197.176 118.247 195.024 120 192.166 120C190.041 120 188.056 119.147 186.455 117.545" />
    <glyph glyph-name="support-phone"
      unicode="&#xEA0A;"
      horiz-adv-x="256" d="M74.536 254.92C44.734 250.417 18.048 229.17 6.444 200.707C0.299 185.635 0 181.613 0 114.015L0 53.292L2.452 50.646C5.744 47.094 10.256 47.094 13.548 50.646L16 53.292L16 114.188C16 183.831 16.045 184.33 23.693 200C27.617 208.04 29.731 210.902 37.447 218.622C45.216 226.395 47.964 228.419 56.032 232.311C71.414 239.733 73.913 240 128 240C182.087 240 184.586 239.733 199.968 232.311C208.041 228.417 210.786 226.394 218.59 218.59C226.394 210.786 228.417 208.041 232.311 199.968C239.955 184.126 240 183.622 240 114.188L240 53.292L242.452 50.646C245.764 47.073 250.255 47.093 253.595 50.697L256.094 53.393L255.738 117.947C255.395 180.241 255.308 182.768 253.246 190.158C244.784 220.485 222.395 243.099 191.341 252.685L182.5 255.414L131.5 255.618C103.45 255.729 77.816 255.415 74.536 254.92M52.678 126.496C42.818 123.786 36.14 116.965 33.449 106.856C31.384 99.095 31.384 28.905 33.449 21.144C37.023 7.717 48.152 0.024 64 0.024C79.848 0.024 90.977 7.717 94.551 21.144C96.616 28.905 96.616 99.095 94.551 106.856C92.797 113.443 88.719 119.496 83.873 122.702C76.368 127.669 62.904 129.306 52.678 126.496M180.678 126.496C170.818 123.786 164.14 116.965 161.449 106.856C159.384 99.095 159.384 28.905 161.449 21.144C165.023 7.717 176.152 0.024 192 0.024C207.848 0.024 218.977 7.717 222.551 21.144C224.616 28.905 224.616 99.095 222.551 106.856C220.797 113.443 216.719 119.496 211.873 122.702C204.368 127.669 190.904 129.306 180.678 126.496M74.87 109.262C79.603 105.754 79.887 103.192 79.887 64C79.887 24.543 79.626 22.264 74.677 18.594C70.582 15.557 57.416 15.558 53.323 18.596C48.176 22.416 47.906 24.928 48.216 66.11C48.491 102.623 48.568 103.948 50.594 106.678C51.745 108.23 54.22 110.065 56.094 110.754C60.961 112.547 71.576 111.703 74.87 109.262M202.87 109.262C207.603 105.754 207.887 103.192 207.887 64C207.887 24.543 207.626 22.264 202.677 18.594C198.582 15.557 185.416 15.558 181.323 18.596C176.176 22.416 175.906 24.928 176.216 66.11C176.491 102.623 176.568 103.948 178.594 106.678C179.745 108.23 182.22 110.065 184.094 110.754C188.961 112.547 199.576 111.703 202.87 109.262" />
    <glyph glyph-name="support-chat"
      unicode="&#xEA0B;"
      horiz-adv-x="256" d="M16.008 254.684C10.952 253.074 2.438 244.401 1.102 239.5C-0.531 233.512 -0.424 70.168 1.216 64.616C2.839 59.123 11.123 50.839 16.616 49.216C19.463 48.375 30.566 47.993 52.616 47.978L84.5 47.955L103.5 25.015C114.604 11.607 123.635 1.596 125.231 0.924C126.732 0.291 128.982 0.032 130.231 0.348C131.611 0.698 140.14 10.136 152 24.439L171.5 47.956L203.384 47.978C225.435 47.993 236.537 48.375 239.384 49.216C244.877 50.839 253.161 59.123 254.784 64.616C256.424 70.168 256.531 233.512 254.898 239.5C253.463 244.762 244.998 253.095 239.384 254.771C233.778 256.445 21.278 256.362 16.008 254.684M237.545 237.545L240 235.091L240 152.191L240 69.292L237.548 66.646L235.095 64L200.798 63.965C175.792 63.939 165.92 63.6 164.359 62.715C163.182 62.047 154.727 52.5 145.572 41.5C136.416 30.5 128.509 21.5 128 21.5C127.491 21.5 119.584 30.5 110.428 41.5C101.273 52.5 92.818 62.047 91.641 62.715C90.08 63.6 80.208 63.939 55.202 63.965L20.905 64L18.452 66.646L16 69.292L16 152.191L16 235.091L18.455 237.545L20.909 240L128 240L235.091 240L237.545 237.545" />
    <glyph glyph-name="arrow-left"
      unicode="&#xEA0C;"
      horiz-adv-x="256" d="M42.263 165.737C2.801 126.275 0 123.243 0 120C0 116.757 2.801 113.725 42.263 74.263C80.791 35.735 84.817 32 87.811 32C92.037 32 96 36.047 96 40.362C96 43.062 91.867 47.572 61.769 77.716L27.539 112L139.317 112L251.095 112L253.548 114.646C256.735 118.085 256.734 122.357 253.545 125.545L251.091 128L139.328 128L27.566 128L61.783 162.311C92.613 193.227 96 196.943 96 199.857C96 204.213 92.19 208 87.809 208C84.817 208 80.779 204.253 42.263 165.737" />
    <glyph glyph-name="arrow-right"
      unicode="&#xEA0D;"
      horiz-adv-x="256" d="M162.455 205.545C160.86 203.951 160 201.957 160 199.857C160 196.943 163.387 193.227 194.217 162.311L228.434 128L116.672 128L4.909 128L2.455 125.545C-0.734 122.357 -0.735 118.085 2.452 114.646L4.905 112L116.683 112L228.461 112L194.231 77.716C164.133 47.572 160 43.062 160 40.362C160 36.047 163.963 32 168.189 32C171.183 32 175.209 35.735 213.737 74.263C253.199 113.725 256 116.757 256 120C256 123.243 253.199 126.275 213.737 165.737C175.221 204.253 171.183 208 168.191 208C166.04 208 164.064 207.154 162.455 205.545" />
    <glyph glyph-name="f-dashboard"
      unicode="&#xEA0E;"
      horiz-adv-x="256" d="M108.5 254.445C52.322 244.952 9.966 202.042 1.455 146C-4.588 106.211 9.673 64.918 39.355 36.262C89.265 -11.923 166.701 -11.955 216.569 36.188C251.144 69.568 264.019 118.019 250.578 164.176C240.645 198.288 215.397 227.737 182.581 243.487C160.111 254.271 132.044 258.423 108.5 254.445M139.047 233.947C155.39 232.27 173.266 225.796 187.91 216.251C195.179 211.513 211.571 195.089 216.36 187.746C228.462 169.189 234.294 149.534 234.237 127.5C234.16 97.643 222.697 71.184 200.88 50.5C159.958 11.703 96.042 11.703 55.12 50.5C33.239 71.244 21.825 97.587 21.759 127.5C21.709 149.564 27.489 169.131 39.487 187.515C44.409 195.057 60.729 211.453 68.09 216.251C85.279 227.455 105.094 233.809 126.144 234.867C127.598 234.94 133.404 234.526 139.047 233.947M117.225 197.25L117.5 181.5L128 181.5L138.5 181.5L138.775 197.25L139.051 213L128 213L116.949 213L117.225 197.25M66.992 188.492L59.534 180.984L79.13 161.242L98.726 141.5L97.298 137C95.339 130.825 96.105 120.481 98.958 114.588C101.815 108.684 108.666 101.824 114.544 98.979C131.335 90.85 153.025 100.583 158.527 118.716C165.704 142.369 143.749 165.107 120 158.616L114.5 157.113L94.991 176.556C84.261 187.25 75.25 196 74.966 196C74.682 196 71.094 192.621 66.992 188.492M169.73 185.231C163.829 179.311 159 174.013 159 173.457C159 172.155 172.232 159 173.542 159C174.088 159 179.366 163.846 185.271 169.77L196.007 180.54L188.234 188.267L180.461 195.995L169.73 185.231M43 128L43 116.949L58.75 117.225L74.5 117.5L74.5 128L74.5 138.5L58.75 138.775L43 139.051L43 128M133.64 136.827C138.962 134.223 139.958 125.231 135.427 120.7C131.962 117.235 127.921 116.469 123.692 118.476C117.15 121.58 115.576 129.86 120.541 135.043C124.325 138.993 128.15 139.514 133.64 136.827M181 128L181 117L197 117L213 117L213 128L213 139L197 139L181 139L181 128" />
    <glyph glyph-name="single-01"
      unicode="&#xEA0F;"
      horiz-adv-x="256" d="M114.5 254.501C105.195 252.422 100.365 250.396 92.932 245.455C79.162 236.3 68.744 220.999 65.389 205C63.143 194.285 63.931 171.013 66.845 162C73.068 142.755 89.142 126.646 108.422 120.333C115.258 118.095 118.268 117.688 128 117.688C137.732 117.688 140.742 118.095 147.578 120.333C166.858 126.646 182.932 142.755 189.155 162C190.755 166.949 191.367 171.961 191.72 183C192.287 200.75 190.816 208.893 184.863 220.966C172.331 246.383 142.277 260.706 114.5 254.501M134.855 233.954C150.373 231.436 163.966 219.606 168.699 204.5C170.678 198.183 171.361 184.293 170.1 176C167.85 161.197 158.972 149.153 145.759 142.978C134.821 137.867 119.842 137.973 109.192 143.237C102.041 146.772 93.464 155.312 90.005 162.341C83.708 175.14 83.551 198.436 89.68 210.638C95.419 222.062 108.361 231.911 120.233 233.889C127.555 235.108 127.734 235.109 134.855 233.954M107 94.91C83.424 92.888 50.03 85.566 38.996 80C31.011 75.972 21.686 66.71 17.334 58.484C11.944 48.295 11 42.575 11 20.106L11 0L128 0L245 0L245 20.106C245 42.536 244.049 48.327 238.718 58.36C234.326 66.625 224.893 76.028 217.004 80.004C205.485 85.809 173.014 92.796 147.5 94.961C133.897 96.115 120.859 96.099 107 94.91M154 72.915C173.874 70.778 200.695 64.484 208.44 60.141C214.464 56.762 220.156 49.671 222.385 42.77C223.346 39.796 224 34.372 224 29.385L224 21L128 21L32 21L32 29.385C32 39.549 33.934 46.07 38.865 52.536C43.823 59.037 50.386 62.426 65.039 66.05C84.76 70.927 94.845 72.517 118 74.397C124.201 74.9 142.563 74.144 154 72.915" />
    <glyph glyph-name="p-edit"
      unicode="&#xEA10;"
      horiz-adv-x="256" d="M31.5 253.955C24.789 251.35 17.517 244.908 14.21 238.638L11.5 233.5L11.5 128L11.5 22.5L14.466 17.145C18.248 10.317 24.719 4.623 31.64 2.033C36.653 0.158 39.362 0 66.538 0L96 0L96 10.5L96 21L68.968 21C47.868 21 41.189 21.312 38.534 22.421C31.622 25.309 32 19.194 32.004 128.2C32.007 223.869 32.06 226.586 33.956 229.696C35.246 231.812 37.187 233.264 39.702 233.997C42.353 234.768 63.346 235.011 109.228 234.801L174.955 234.5L177.728 231.728L180.5 228.957L181 189.228L181.5 149.5L192 149.5L202.5 149.5L202.498 190.5C202.496 231.392 202.489 231.514 200.145 236.702C196.98 243.707 189.019 251.101 181.687 253.844C175.983 255.978 175.221 255.999 106.212 255.948C39.662 255.898 36.273 255.808 31.5 253.955M164.745 84.245L128 47.49L128 23.745L128 0L151.755 0L175.51 0L212.255 36.755C232.465 56.97 249 73.961 249 74.513C249 75.82 203.794 121 202.487 121C201.939 121 184.955 104.46 164.745 84.245M211.508 82.992L219.47 74.983L192.492 47.992L165.514 21L157.257 21L149 21L149 29.243L149 37.486L175.743 64.243C190.452 78.959 202.725 91 203.017 91C203.308 91 207.13 87.396 211.508 82.992" />
    <glyph glyph-name="left-arrow"
      unicode="&#xEA11;"
      horiz-adv-x="256" d="M120 188.5L59.506 128L120 67.5C153.272 34.225 180.957 7 181.524 7C182.09 7 185.685 10.155 189.512 14.012L196.47 21.023L142.988 74.512L89.507 128L142.988 181.488L196.47 234.977L189.512 241.988C185.685 245.845 182.09 249 181.524 249C180.957 249 153.272 221.775 120 188.5" />
    <glyph glyph-name="up-arrow"
      unicode="&#xEA12;"
      horiz-adv-x="256" d="M67.247 135.747C34.111 102.608 7 75.033 7 74.47C7 73.907 10.155 70.315 14.012 66.488L21.023 59.53L74.512 113.012L128 166.493L181.488 113.012L234.977 59.53L241.988 66.488C245.845 70.315 249 73.91 249 74.476C249 75.478 128.991 196 127.994 196C127.719 196 100.383 168.886 67.247 135.747" />
    <glyph glyph-name="e-remove"
      unicode="&#xEA13;"
      horiz-adv-x="256" d="M45.723 210.225C42.025 206.499 39 203.013 39 202.48C39 201.946 55.535 184.97 75.745 164.755L112.49 128L75.745 91.245C55.535 71.03 39 54.03 39 53.468C39 52.171 52.219 39 53.52 39C54.054 39 71.03 55.535 91.245 75.745L128 112.49L165.265 75.235L202.53 37.98L209.765 45.263C213.744 49.269 217 52.984 217 53.519C217 54.053 200.465 71.03 180.255 91.245L143.51 128L180.255 164.755C200.465 184.97 217 201.97 217 202.532C217 203.829 203.781 217 202.48 217C201.946 217 184.97 200.465 164.755 180.255L128 143.51L91.245 180.255C71.03 200.465 54.03 217 53.468 217C52.906 217 49.421 213.951 45.723 210.225" />
    <glyph glyph-name="download"
      unicode="&#xEA14;"
      horiz-adv-x="256" d="M117 167.762L117 90.524L101.738 105.762C93.344 114.143 86.02 121 85.461 121C84.162 121 71 107.774 71 106.468C71 105.929 83.802 92.69 99.45 77.05L127.9 48.614L156.45 77.003C172.152 92.616 185 105.878 185 106.473C185 107.806 171.819 121 170.487 121C169.957 121 162.656 114.143 154.262 105.762L139 90.524L139 167.762L139 245L128 245L117 245L117 167.762M21 80L21 0L128 0L235 0L235 80L235 160L203 160L171 160L171 149.5L171 139L192 139L213 139L213 80L213 21L128 21L43 21L43 80L43 139L64 139L85 139L85 149.5L85 160L53 160L21 160L21 80" />
    <glyph glyph-name="t-warning"
      unicode="&#xEA15;"
      horiz-adv-x="256" d="M65.799 128.75L4.121 11.5L66.06 11.242C100.127 11.101 155.887 11.101 189.972 11.242L251.944 11.5L190.235 128.75C156.296 193.238 128.291 246 128.002 246C127.713 246 99.722 193.238 65.799 128.75M172.607 116.25L216.696 32.5L172.348 32.24C147.957 32.097 108.047 32.097 83.66 32.24L39.321 32.5L83.381 116.25C107.614 162.312 127.684 200 127.98 200C128.276 200 148.358 162.312 172.607 116.25M117 116.966L117 84.932L127.75 85.216L138.5 85.5L138.764 117.25L139.028 149L128.014 149L117 149L117 116.966M125.327 74.292C122.303 73.72 118.25 69.416 117.494 65.974C116.579 61.809 119.415 56.506 123.624 54.508C127.899 52.479 131.939 53.212 135.364 56.636C142.899 64.172 135.999 76.31 125.327 74.292" />
    <glyph glyph-name="s-info"
      unicode="&#xEA16;"
      horiz-adv-x="256" d="M11 128L11 11L128 11L245 11L245 128L245 245L128 245L11 245L11 128M224 128L224 32L128 32L32 32L32 128L32 224L128 224L224 224L224 128M123 190.727C119.573 189.023 116.658 182.833 117.493 179.031C118.443 174.706 123.291 171 128 171C130.655 171 132.777 171.783 134.85 173.527C144.279 181.461 134.095 196.244 123 190.727M117 106.5L117 64L128 64L139 64L139 106.5L139 149L128 149L117 149L117 106.5" />
    <glyph glyph-name="dots"
      unicode="&#xEA17;"
      horiz-adv-x="256" d="M22.365 147.969C20.64 147.437 17.055 145.539 14.398 143.751C-2.19 132.589 -4.757 110.276 8.872 95.706C14.243 89.964 18.366 87.672 26.25 86.045C36.911 83.845 47.277 87.313 55.128 95.706C69.929 111.529 65.396 136.016 45.795 146.129C40.955 148.627 27.839 149.656 22.365 147.969M118.365 147.969C116.64 147.437 113.055 145.539 110.398 143.751C93.81 132.589 91.243 110.276 104.872 95.706C110.243 89.964 114.366 87.672 122.25 86.045C132.911 83.845 143.277 87.313 151.128 95.706C165.929 111.529 161.396 136.016 141.795 146.129C136.955 148.627 123.839 149.656 118.365 147.969M214.365 147.969C212.64 147.437 209.055 145.539 206.398 143.751C189.81 132.589 187.243 110.276 200.872 95.706C208.723 87.313 219.089 83.845 229.75 86.045C237.634 87.672 241.757 89.964 247.128 95.706C261.929 111.529 257.396 136.016 237.795 146.129C232.955 148.627 219.839 149.656 214.365 147.969M37.712 126.034C46.127 120.903 42.077 107 32.167 107C21.783 107 17.567 120.717 26.311 126.048C30.356 128.515 33.65 128.511 37.712 126.034M133.712 126.034C142.127 120.903 138.077 107 128.167 107C117.783 107 113.567 120.717 122.311 126.048C126.356 128.515 129.65 128.511 133.712 126.034M229.712 126.034C238.127 120.903 234.077 107 224.167 107C213.783 107 209.567 120.717 218.311 126.048C222.356 128.515 225.65 128.511 229.712 126.034" />
    <glyph glyph-name="log-out"
      unicode="&#xEA18;"
      horiz-adv-x="256" d="M96 245.5L96 235L160 235L224 235L224 128L224 21L160 21L96 21L96 10.5L96 0L170.5 0L245 0L245 128L245 256L170.5 256L96 256L96 245.5M40.498 161.998L6.507 127.996L40.741 93.763L74.975 59.529L81.987 66.488C85.844 70.315 89 73.905 89 74.464C89 75.024 79.667 84.824 68.259 96.241L47.518 117L114.259 117L181 117L181 128L181 139L114.259 139L47.518 139L68.259 159.759C79.667 171.176 89 180.976 89 181.536C89 182.525 75.93 196 74.969 196C74.705 196 59.193 180.699 40.498 161.998" />
    <glyph glyph-name="small-triangle-right"
      unicode="&#xEA19;"
      horiz-adv-x="256" d="M75 128L75 55.77L77.25 57.197C78.487 57.982 104.362 74.113 134.75 93.044C165.137 111.974 190 127.705 190 128C190 128.295 165.138 144.026 134.75 162.956C104.362 181.887 78.487 198.018 77.25 198.803L75 200.23L75 128M126.236 143.275C139.29 135.149 149.972 128.275 149.973 128C149.975 127.559 135.027 118.108 105.304 99.755L96 94.011L96 128.104L96 162.196L99.25 160.123C101.037 158.983 113.181 151.402 126.236 143.275" />
    <glyph glyph-name="small-triangle-left"
      unicode="&#xEA1A;"
      horiz-adv-x="256" d="M123.25 164.246C91.762 144.61 66 128.299 66 128C66 127.701 91.762 111.39 123.25 91.754L180.5 56.052L180.762 92.026C180.907 111.812 180.907 144.188 180.762 163.974L180.5 199.948L123.25 164.246M159.774 111.089L159.5 94.178L132.769 110.839C118.067 120.002 106.038 127.725 106.038 128C106.038 128.275 118.067 135.998 132.769 145.161L159.5 161.822L159.774 144.911C159.924 135.61 159.924 120.39 159.774 111.089" />
    <glyph glyph-name="load-more"
      unicode="&#xEA1B;"
      horiz-adv-x="256" d="M41.576 253.517C34.283 250.519 26.947 243.532 23.805 236.592L21.5 231.5L21.204 132.5C20.898 30.049 21.075 24.641 24.972 17.102C27.407 12.394 34.35 5.811 40 2.855L44.5 0.5L96.75 0.216L149 -0.068L149 10.466L149 21L100.45 21C59.333 21 51.458 21.229 49.011 22.494C42.586 25.817 43 18.533 43 128.207L43 227.968L45.918 231.234L48.835 234.5L114.668 234.801C160.626 235.011 181.647 234.768 184.298 233.997C186.813 233.264 188.754 231.812 190.044 229.696C191.887 226.674 191.993 224.394 191.996 187.75L192 149L202.541 149L213.082 149L212.791 191.25C212.5 233.461 212.498 233.504 210.137 238C206.744 244.462 198.893 251.522 192.401 253.951C187.071 255.945 185.06 255.999 117.212 255.976L47.5 255.953L41.576 253.517M192 82.268L192 47.536L181.495 58.005L170.99 68.474L163.253 60.737L155.516 53L178.5 30C191.141 17.35 201.941 7 202.5 7C203.829 7 249 52.205 249 53.535C249 54.095 245.848 57.682 241.995 61.504L234.991 68.455L224.728 58.228C219.084 52.602 214.136 48 213.733 48C213.33 48 213 63.525 213 82.5L213 117L202.5 117L192 117L192 82.268" />
    <glyph glyph-name="fav-empty"
      unicode="&#xEA1C;"
      horiz-adv-x="256" d="M13.723 242.225C10.025 238.499 7 235.023 7 234.502C7 233.98 9.742 230.787 13.093 227.406L19.186 221.258L14.589 215.014C4.338 201.089 0.619 189.287 0.561 170.5C0.516 155.71 2.353 147.909 8.772 135.643C13.759 126.112 21.807 117.486 78.402 61.006L127.996 11.511L153.255 36.755L178.514 61.999L206.492 34.008L234.47 6.017L241.735 13.233C245.731 17.202 249 20.912 249 21.477C249 22.818 22.813 249 21.472 249C20.908 249 17.421 245.951 13.723 242.225M64 234.5L64 224L71.25 223.994C82.285 223.985 89.751 222.408 97.996 218.343C107.234 213.789 114.298 207.23 121.694 196.342C124.811 191.754 127.648 188 128 188C128.352 188 131.226 191.807 134.386 196.461C144.25 210.982 155.246 219.195 169.24 222.494C181.467 225.377 192.695 224.096 204.5 218.47C231.322 205.689 242.167 174.146 228.975 147.289C225.449 140.11 222.942 137.021 209.025 122.71L193.108 106.342L200.559 98.941L208.01 91.54L220.578 104.02C235.374 118.713 243.997 129.067 247.927 136.861C257.473 155.792 258.453 179.62 250.491 199.215C242.724 218.328 225.056 234.613 204.5 241.606C194.132 245.132 176.482 246.022 165.019 243.595C155.274 241.532 140.907 234.344 133.713 227.932L128.003 222.842L122.918 227.291C109.934 238.649 92.344 245 73.872 245L64 245L64 234.5M145.719 59.251L127.942 41.5L79.622 90C32.038 137.761 31.239 138.629 27.151 147C18.463 164.787 19.713 184.452 30.57 200.804L34.211 206.287L98.853 141.645L163.496 77.003L145.719 59.251" />
    <glyph glyph-name="c-remove"
      unicode="&#xEA1D;"
      horiz-adv-x="256" d="M108.5 254.445C52.322 244.952 9.966 202.042 1.455 146C-4.588 106.211 9.673 64.918 39.355 36.262C89.265 -11.923 166.701 -11.955 216.569 36.188C251.144 69.568 264.019 118.019 250.578 164.176C240.645 198.288 215.397 227.737 182.581 243.487C160.111 254.271 132.044 258.423 108.5 254.445M139.047 233.947C155.39 232.27 173.266 225.796 187.91 216.251C195.179 211.513 211.571 195.089 216.36 187.746C228.462 169.189 234.294 149.534 234.237 127.5C234.16 97.643 222.697 71.184 200.88 50.5C159.958 11.703 96.042 11.703 55.12 50.5C33.239 71.244 21.825 97.587 21.759 127.5C21.709 149.564 27.489 169.131 39.487 187.515C44.409 195.057 60.729 211.453 68.09 216.251C85.279 227.455 105.094 233.809 126.144 234.867C127.598 234.94 133.404 234.526 139.047 233.947M77.723 178.225C74.025 174.499 71 171.015 71 170.484C71 169.952 80.333 160.176 91.741 148.759L112.482 128L91.741 107.241C80.333 95.824 71 86.024 71 85.464C71 84.173 84.22 71 85.516 71C86.048 71 95.824 80.333 107.241 91.741L128 112.482L148.759 91.741C160.176 80.333 169.976 71 170.536 71C171.095 71 174.68 74.15 178.5 78L185.446 85L178.481 92.25C174.649 96.238 165.216 105.913 157.518 113.752L143.522 128.004L164.261 148.761C175.667 160.177 185 169.976 185 170.536C185 171.827 171.78 185 170.484 185C169.952 185 160.176 175.667 148.759 164.259L128 143.518L107.241 164.259C95.824 175.667 86.024 185 85.464 185C84.905 185 81.421 181.951 77.723 178.225" />
    <glyph glyph-name="money"
      unicode="&#xEA1E;"
      horiz-adv-x="256" d="M21 128L21 0L128 0L235 0L235 128L235 256L128 256L21 256L21 128M213 128L213 21L128 21L43 21L43 128L43 235L128 235L213 235L213 128M117 205.159L117 197.318L111.25 196.049C99.072 193.362 89.499 186.74 84.856 177.791C81.492 171.307 81.058 157.496 83.976 149.753C87.306 140.916 94.168 134.098 105.283 128.582C110.361 126.062 115.074 124 115.758 124C116.704 124 117 119.471 117 105C117 86.536 116.942 86 114.958 86C110.85 86 97.647 89.188 88.37 92.42C78.886 95.725 78.848 95.729 78.082 93.619C73.073 79.817 71.774 75.893 72.107 75.562C73.519 74.16 98.292 66.925 106.75 65.445L117 63.652L117 53.326L117 43L127.967 43L138.934 43L139.217 54.056L139.5 65.113L146.144 67.347C159.489 71.834 167.264 79.805 170.632 92.454C175.732 111.601 167.094 126.536 145.75 135.473L139 138.3L139 156.738L139 175.176L143.194 174.467C149.033 173.481 157.178 170.572 163.048 167.378C165.777 165.892 168.164 164.862 168.351 165.088C169.33 166.269 178 182.324 178 182.956C178 183.363 173.838 185.748 168.75 188.257C160.625 192.263 154.439 194.195 142.25 196.535L139 197.159L139 205.079L139 213L128 213L117 213L117 205.159M117 160.436L117 145.872L112.866 148.186C104.079 153.105 100.31 163.341 105.067 169.368C107.376 172.293 112.104 174.891 115.25 174.961C116.838 174.996 117 173.655 117 160.436M144.257 112.471C146.304 111.081 148.691 108.565 149.562 106.881C152.64 100.928 148.964 92.101 141.881 88.438L139 86.949L139 100.974C139 108.688 139.346 115 139.768 115C140.19 115 142.21 113.862 144.257 112.471" />
    <glyph glyph-name="payment-method"
      unicode="&#xEA1F;"
      horiz-adv-x="256" d="M22.226 254.541C17.516 253.06 10.818 248.279 7.096 243.742C5.773 242.13 3.625 238.17 2.321 234.943L-0.049 229.076L0.226 153.288L0.5 77.5L2.808 72.401C5.453 66.559 11.656 60.115 17.551 57.087C24.65 53.44 31.073 52.964 69.544 53.237L106.5 53.5L106.5 64L106.5 74.5L66.772 75L27.043 75.5L24.272 78.271L21.5 81.043L21.207 110.021L20.913 139L138.486 139L256.058 139L255.779 185.25L255.5 231.5L252.892 237C249.794 243.532 243.721 249.765 237.213 253.091L232.5 255.5L129.5 255.693C45.628 255.849 25.706 255.635 22.226 254.541M231.231 231.232C234.32 228.143 234.5 227.566 234.5 220.732L234.5 213.5L128 213.5L21.5 213.5L21.5 220.671C21.5 226.936 21.816 228.181 24 230.53C25.375 232.009 27.4 233.594 28.5 234.054C29.6 234.513 74.929 234.801 129.231 234.694L227.962 234.5L231.231 231.232M235 176L235 160L128 160L21 160L21 176L21 192L128 192L235 192L235 176M164.745 84.245L128 47.49L128 23.745L128 0L151.755 0L175.51 0L212.255 36.755C232.465 56.97 249 73.961 249 74.513C249 75.82 203.794 121 202.487 121C201.939 121 184.955 104.46 164.745 84.245M211.508 82.992L219.47 74.983L192.492 47.992L165.514 21L157.257 21L149 21L149 29.243L149 37.486L175.743 64.243C190.452 78.959 202.725 91 203.017 91C203.308 91 207.13 87.396 211.508 82.992" />
    <glyph glyph-name="order"
      unicode="&#xEA20;"
      horiz-adv-x="256" d="M64 165.604L64 75.209L44.25 74.819C26.362 74.467 24.029 74.217 19.5 72.168C12.987 69.222 5.701 61.988 2.805 55.592C0.626 50.779 0.483 49.117 0.188 25.25L-0.125 0L74.438 0L149 0L149 20.184C149 38.325 149.202 40.787 151 44.5C156.174 55.187 172.744 56.047 178.886 45.947C179.95 44.198 181.055 39.815 181.454 35.769C182.532 24.833 185.265 18.763 192.361 11.549C200.386 3.391 206.929 0.715 219 0.655C226.2 0.62 228.433 1.036 233.605 3.378C241.318 6.871 248.999 14.563 252.702 22.5L255.5 28.5L255.771 142.25L256.041 256L160.021 256L64 256L64 165.604M234.79 137C234.95 83.375 234.804 37.552 234.467 35.172C233.309 26.996 224.242 19.975 216.685 21.404C212.391 22.215 207.491 25.322 205.349 28.589C204.379 30.07 203.04 35.295 202.364 40.235C201.616 45.704 200.136 51.246 198.565 54.457C195.089 61.561 186.93 69.095 179.475 72.084C173.534 74.465 173.248 74.481 129.25 74.796L85 75.114L85 155.063L85 235.013L159.75 234.756L234.5 234.5L234.79 137M117 181.5L117 171L160 171L203 171L203 181.5L203 192L160 192L117 192L117 181.5M117 128L117 116.979L159.75 117.239L202.5 117.5L202.5 128L202.5 138.5L159.75 138.761L117 139.021L117 128M129.384 47.25C128.64 44.088 128.024 36.887 128.016 31.25L128 21L74.5 21L21 21L21 32.55C21 44.897 21.989 48.478 26.217 51.439C28.165 52.804 34.862 53 79.591 53L130.737 53L129.384 47.25" />
    <glyph glyph-name="favorite"
      unicode="&#xEA21;"
      horiz-adv-x="256" d="M56 242.955C35.649 237.704 16.818 222.392 7.619 203.614C2.104 192.358 0.607 185.333 0.561 170.5C0.516 155.71 2.353 147.909 8.772 135.643C13.759 126.112 21.807 117.486 78.404 61.004L128 11.508L178.598 62.004C237.35 120.637 242.569 126.302 248.058 137.4C253.254 147.909 254.911 154.253 255.662 166.518C257.045 189.123 248.712 209.917 232.204 225.054C223.857 232.708 214.866 238.08 204.5 241.606C194.132 245.132 176.482 246.022 165.019 243.595C155.273 241.532 140.907 234.344 133.711 227.93L128 222.84L122.289 227.93C115.231 234.221 100.786 241.516 91.487 243.485C81.568 245.586 65.254 245.342 56 242.955M86.76 222.494C100.754 219.195 111.75 210.982 121.614 196.461C124.774 191.807 127.648 188 128 188C128.352 188 131.226 191.807 134.386 196.461C144.25 210.982 155.246 219.195 169.24 222.494C181.188 225.311 193.099 223.959 204.5 218.492C231.477 205.554 242.155 174.209 228.853 147C224.761 138.63 223.961 137.761 176.349 90L128 41.5L79.651 90C32.039 137.761 31.239 138.63 27.147 147C13.846 174.209 24.5 205.494 51.5 218.509C62.736 223.925 74.874 225.297 86.76 222.494" />
    <glyph glyph-name="favorite-2"
      unicode="&#xEA22;"
      horiz-adv-x="256" d="M234.1333333333334 223.456C220.0213333333333 237.5573333333334 201.28 245.3333333333334 181.3333333333333 245.3333333333334S142.6453333333333 237.5573333333334 128.544 223.4666666666667C128.3626666666667 223.2853333333334 128.1813333333333 223.104 128 222.912C127.8186666666667 223.104 127.648 223.2746666666667 127.4666666666667 223.456C113.3546666666667 237.5573333333334 94.6133333333333 245.3333333333334 74.6666666666667 245.3333333333334S35.9786666666667 237.5573333333334 21.8666666666667 223.456S0 190.6133333333334 0 170.6666666666667S7.7653333333333 131.9786666666667 21.8666666666667 117.8773333333334L128 11.744L234.1333333333334 117.8773333333334C248.2346666666667 131.9786666666667 256 150.72 256 170.6666666666667C256 190.6026666666667 248.2346666666667 209.3546666666667 234.1333333333334 223.456z" />
    <glyph glyph-name="quote"
      unicode="&#xEA23;"
      horiz-adv-x="256" d="M51.992 229.936C25.244 215.963 9.023 192.609 2.373 158.5C0.829 150.579 0.575 141.194 0.253 80.25L-0.112 11L53.451 11L107.015 11L106.757 74.75L106.5 138.5L64.25 138.761L22 139.022L22.001 142.261C22.002 144.042 22.674 149.312 23.494 153.972C28.223 180.845 40.455 199.441 60.762 210.627C64.468 212.669 67.611 214.411 67.746 214.499C67.987 214.656 60.279 233.054 59.751 233.582C59.604 233.729 56.112 232.089 51.992 229.936M200.376 229.471C175.508 216.509 158.995 193.332 152.556 162.351C149.745 148.825 149 129.561 149 70.355L149 11L202.5 11L256 11L256 75L256 139L213.42 139L170.841 139L171.541 145.75C172.708 157.013 176.706 170.981 181.631 181C187.574 193.093 198.544 204.543 209.75 210.351C213.738 212.418 217 214.32 217 214.577C217 216.669 209.377 233 208.401 233C207.71 233 204.099 231.412 200.376 229.471M85 74.5L85 32L53 32L21 32L21 74.5L21 117L53 117L85 117L85 74.5M235 74.5L235 32L203 32L171 32L171 74.5L171 117L203 117L235 117L235 74.5" />
    <glyph glyph-name="zoom"
      unicode="&#xEA24;"
      horiz-adv-x="256" d="M89.342 243.587C78.905 241.596 72.681 239.376 61.9 233.797C38.951 221.921 22.118 201.204 14.412 175.353C10.9 163.57 10.011 144.532 12.385 131.922C22.815 76.517 78.114 42.147 132.852 57.048C141.24 59.332 154.201 65.527 161.393 70.69L166.287 74.203L200.409 40.091L234.53 5.98L241.765 13.264C245.744 17.27 249 20.984 249 21.518C249 22.052 233.879 37.615 215.399 56.101L181.797 89.713L185.366 94.68C200.173 115.291 205.989 145.385 200.116 171C192.258 205.275 165.485 232.659 130.5 242.206C121.215 244.739 99.249 245.476 89.342 243.587M119.981 222.933C148.146 218.364 173.616 193.974 179.517 165.919C181.399 156.974 181.393 141.549 179.505 132.5C178.701 128.65 175.936 121.225 173.36 116C169.358 107.882 167.282 105.112 159.088 96.957C151.683 89.587 147.678 86.482 141.5 83.321C128.307 76.571 123.631 75.534 106.5 75.553C92.895 75.569 90.756 75.821 83.5 78.26C72.056 82.107 63.708 87.343 54.421 96.5C38.156 112.538 30.816 131.838 32.364 154.5C33.141 165.865 34.908 172.425 39.906 182.5C52.329 207.543 77.851 223.655 105.5 223.911C109.9 223.952 116.416 223.512 119.981 222.933" />
    <glyph glyph-name="submit"
      unicode="&#xEA25;"
      horiz-adv-x="256" d="M152.24 209.757L144.997 202.514L176.743 170.757L208.488 139L114.744 139L21 139L21 128L21 117L114.744 117L208.488 117L176.734 85.235L144.981 53.469L152.502 45.998L160.024 38.527L204.759 83.262L249.494 127.997L205.001 172.499C180.53 196.974 160.278 217 159.996 217C159.714 217 156.223 213.741 152.24 209.757" />
    <glyph glyph-name="check-single"
      unicode="&#xEA26;"
      horiz-adv-x="256" d="M158.357 153.992L84.527 58.984L53.508 89.992C36.447 107.047 22.029 121 21.467 121C20.165 121 7 107.778 7 106.47C7 104.503 85.936 26.536 86.924 27.527C89.176 29.788 248.96 235.565 248.979 236.229C249.004 237.097 234.072 249 232.958 249C232.534 249 198.964 206.247 158.357 153.992" />
    <glyph glyph-name="shopping-cart"
      unicode="&#xEA27;"
      horiz-adv-x="256" d="M2.455 253.545C-0.734 250.357 -0.735 246.085 2.452 242.646L4.905 240L26.952 240C39.079 240 49 239.632 49 239.181C49 238.731 52.375 208.049 56.5 171C60.625 133.951 64 103.024 64 102.273C64 101.523 65.105 99.805 66.455 98.455L68.909 96L143.844 96C213.734 96 218.921 96.118 220.902 97.75C222.436 99.014 227.6 113.231 239.513 148.989C248.581 176.207 255.986 199.382 255.968 200.489C255.929 202.953 254.214 205.293 251.316 206.837C249.712 207.691 229.447 208 175.02 208L100.909 208L98.455 205.545C95.266 202.357 95.265 198.085 98.452 194.646L100.905 192L168.872 192L236.84 192L223.585 152.25L210.33 112.5L144.665 112.243C108.549 112.101 79 112.357 79 112.812C79 115.371 63.935 248.411 63.407 250.515C62.086 255.778 60.803 256 31.732 256L4.909 256L2.455 253.545M72.734 62.97C63.404 60.627 55.095 53.89 50.812 45.193C48.946 41.404 48.5 38.862 48.5 32C48.5 21.879 50.692 16.466 57.579 9.579C68.752 -1.594 85.733 -3.061 98.421 6.051C119.042 20.86 115.331 51.659 91.744 61.47C86.969 63.456 77.609 64.195 72.734 62.97M200.734 62.97C191.404 60.627 183.095 53.89 178.812 45.193C176.946 41.404 176.5 38.862 176.5 32C176.5 21.879 178.692 16.466 185.579 9.579C196.752 -1.594 213.733 -3.061 226.421 6.051C247.042 20.86 243.331 51.659 219.744 61.47C214.969 63.456 205.609 64.195 200.734 62.97M86.655 46.359C96.696 41.595 98.921 29.206 91.194 21.084C87.075 16.753 82.43 15.321 76.259 16.479C71.492 17.373 65.351 23.614 64.435 28.493C61.956 41.707 74.761 52.003 86.655 46.359M214.655 46.359C224.696 41.595 226.921 29.206 219.194 21.084C215.075 16.753 210.43 15.321 204.259 16.479C199.492 17.373 193.351 23.614 192.435 28.493C189.956 41.707 202.761 52.003 214.655 46.359" />
    <glyph glyph-name="bag-20"
      unicode="&#xEA28;"
      horiz-adv-x="256" d="M117.5 255.028C105.86 252.447 97.811 247.769 89.293 238.633C80.347 229.038 75 217.132 75 206.806L75 203.033L48.25 202.766L21.5 202.5L21.245 101.25L20.99 0L128 0L235.01 0L234.755 101.25L234.5 202.5L207.75 202.766L181 203.033L181 206.806C181 217.132 175.653 229.038 166.707 238.633C156.093 250.017 145.711 254.86 130.5 255.522C125.55 255.738 119.7 255.515 117.5 255.028M141 231.868C150.177 227.868 157.927 217.564 159.593 207.147L160.256 203L128 203L95.744 203L96.417 207.208C98.504 220.258 108.88 231.41 121.344 234C126.985 235.172 135.552 234.243 141 231.868M75 165L75 149L85.5 149L96 149L96 165L96 181L128 181L160 181L160 165L160 149L170.5 149L181 149L181 165L181 181L197 181L213 181L213 101L213 21L128 21L43 21L43 101L43 181L59 181L75 181L75 165" />
    <glyph glyph-name="save-to-list"
      unicode="&#xEA29;"
      horiz-adv-x="256" d="M0 224L0 213L128 213L256 213L256 224L256 235L128 235L0 235L0 224M0 160L0 149L128 149L256 149L256 160L256 171L128 171L0 171L0 160M192 96L192 75L170.5 75L149 75L149 64L149 53L170.5 53L192 53L192 32L192 11L202.5 11L213 11L213 32L213 53L234.5 53L256 53L256 64L256 75L234.5 75L213 75L213 96L213 117L202.5 117L192 117L192 96M0 96L0 85L64 85L128 85L128 96L128 107L64 107L0 107L0 96M0 32L0 21L64 21L128 21L128 32L128 43L64 43L0 43L0 32" />
    <glyph glyph-name="reply"
      unicode="&#xEA2A;"
      horiz-adv-x="256" d="M61.75 194.251C31.637 164.134 7 139.043 7 138.493C7 137.943 31.75 112.746 62 82.5L117 27.507L117 61.85L117 96.192L127.75 95.526C178.114 92.405 200.977 83.434 221.208 58.856C227.572 51.124 233.727 41.541 248.089 17L255.99 3.5L255.995 27.644C256.004 69.799 252.412 90.085 240.957 112.584C220.751 152.272 180.667 175.702 124.763 180.504L117.026 181.168L116.763 215.088L116.5 249.008L61.75 194.251M112.771 159.689C136.326 158.84 151.935 155.915 169.834 148.997C198.767 137.814 220.21 114.538 229.055 84.713L229.882 81.926L225.849 85.213C214.47 94.489 209.73 97.678 201.5 101.594C180.048 111.801 149.47 116.991 110.75 116.998L96 117L96 98.252L96 79.504L66.254 109.25L36.508 138.996L66.004 168.506L95.5 198.016L95.771 179.154L96.042 160.292L112.771 159.689" />
    <glyph glyph-name="squares"
      unicode="&#xEA2B;"
      horiz-adv-x="256" d="M11 192L11 139L64 139L117 139L117 192L117 245L64 245L11 245L11 192M139 192L139 139L192 139L245 139L245 192L245 245L192 245L139 245L139 192M96 192L96 160L64 160L32 160L32 192L32 224L64 224L96 224L96 192M224 192L224 160L192 160L160 160L160 192L160 224L192 224L224 224L224 192M11 64L11 11L64 11L117 11L117 64L117 117L64 117L11 117L11 64M139 64L139 11L192 11L245 11L245 64L245 117L192 117L139 117L139 64M96 64L96 32L64 32L32 32L32 64L32 96L64 96L96 96L96 64M224 64L224 32L192 32L160 32L160 64L160 96L192 96L224 96L224 64" />
    <glyph glyph-name="launch-app"
      unicode="&#xEA2E;"
      horiz-adv-x="256" d="M0 128L0 0L128 0L256 0L256 53.5L256 107L245.511 107L235.021 107L234.761 64.25L234.5 21.5L127.75 21.245L21 20.991L21 127.995L21 235L64 235L107 235L107 245.5L107 256L53.5 256L0 256L0 128M149 245.5L149 235L184.246 235L219.492 235L170.246 185.746C143.161 158.657 121 136.006 121 135.41C121 134.163 134.381 121 135.649 121C136.113 121 158.657 143.161 185.746 170.246L235 219.492L235 184.246L235 149L245.5 149L256 149L256 202.5L256 256L202.5 256L149 256L149 245.5" />
    <glyph glyph-name="star"
      unicode="&#xEA2F;"
      horiz-adv-x="278.2608695652174" d="M268.2434782608696 155.8260869565218C269.3565217391304 155.8260869565218 269.3565217391304 156.9391304347826 270.4695652173913 158.0521739130435H264.9043478260869C256 159.1652173913044 247.095652173913 159.1652173913044 237.0782608695652 160.2782608695652C217.0434782608695 161.3913043478261 197.0086956521739 162.504347826087 176.9739130434782 164.7304347826087C174.7478260869565 164.7304347826087 173.6347826086956 165.8434782608696 172.5217391304347 168.0695652173913C161.391304347826 197.0086956521739 150.2608695652173 224.8347826086957 138.0173913043478 253.7739130434783C138.0173913043478 254.8869565217392 136.9043478260869 256 136.9043478260869 257.1130434782609C135.7913043478261 256 135.7913043478261 254.8869565217392 135.7913043478261 253.7739130434783C124.6608695652174 225.9478260869565 113.5304347826087 199.2347826086957 103.5130434782608 171.4086956521739C101.2869565217391 166.9565217391304 100.1739130434782 164.7304347826087 94.6086956521739 164.7304347826087C71.2347826086956 163.6173913043479 47.8608695652173 161.3913043478261 24.4869565217391 160.2782608695652C17.8086956521739 160.2782608695652 11.1304347826087 159.1652173913044 3.3391304347826 159.1652173913044L5.5652173913043 156.9391304347826C28.9391304347826 136.904347826087 52.3130434782608 116.8695652173913 75.6869565217391 97.9478260869565C77.9130434782608 96.8347826086957 77.9130434782608 95.7217391304348 76.7999999999999 93.495652173913C70.1217391304347 67.8956521739131 63.4434782608695 43.4086956521739 57.8782608695652 17.8086956521739C56.7652173913043 12.2434782608696 54.5391304347826 6.6782608695652 53.4260869565217 1.1130434782609C54.5391304347826 2.2260869565218 55.6521739130434 2.2260869565218 56.7652173913043 3.3391304347826C82.3652173913043 20.0347826086957 109.0782608695652 35.6173913043479 134.6782608695652 52.3130434782609C136.9043478260869 53.4260869565217 138.0173913043478 53.4260869565217 140.2434782608695 52.3130434782609C165.8434782608695 35.6173913043479 192.5565217391304 18.9217391304348 218.1565217391304 3.3391304347826C219.2695652173913 3.3391304347826 220.3826086956521 2.2260869565218 221.495652173913 1.1130434782609C221.495652173913 2.2260869565218 221.495652173913 3.3391304347826 220.3826086956522 4.4521739130435L197.0086956521739 94.6086956521739C197.0086956521739 96.8347826086957 197.0086956521739 97.9478260869566 198.1217391304348 99.0608695652174C221.495652173913 115.7565217391305 244.8695652173913 135.7913043478261 268.2434782608696 155.8260869565218z" />
    <glyph glyph-name="star_empty"
      unicode="&#xEA30;"
      horiz-adv-x="266.6666666666667" d="M3.2 161.0666666666667C10.6666666666667 161.0666666666667 17.0666666666667 162.1333333333333 23.4666666666667 162.1333333333333C45.8666666666667 163.2 68.2666666666667 165.3333333333333 90.6666666666667 166.4C96 166.4 97.0666666666667 168.5333333333333 99.2 172.8C109.8666666666667 199.4666666666667 120.5333333333333 225.0666666666667 130.1333333333333 251.7333333333334C130.1333333333333 252.8 131.2 253.8666666666667 131.2 254.9333333333334C132.2666666666667 253.8666666666667 132.2666666666667 252.8 132.2666666666667 251.7333333333334C142.9333333333333 224 153.6 197.3333333333334 165.3333333333333 169.6C166.4 167.4666666666667 167.4666666666667 166.4 169.6 166.4C188.8 165.3333333333334 208 164.2666666666667 227.2 162.1333333333333C235.7333333333333 161.0666666666667 244.2666666666667 161.0666666666667 253.8666666666667 160H259.2L257.0666666666667 157.8666666666667C234.6666666666667 138.6666666666667 212.2666666666667 119.4666666666667 189.8666666666667 101.3333333333333C188.8 100.2666666666667 187.7333333333334 99.2 188.8 97.0666666666666L211.2 10.6666666666666C211.2 9.6 211.2 8.5333333333333 212.2666666666667 7.4666666666666C211.2 8.5333333333333 210.1333333333334 8.5333333333333 209.0666666666667 9.6C184.5333333333334 25.6 158.9333333333334 41.6 134.4 56.5333333333333C132.2666666666667 57.6 131.2000000000001 57.6 129.0666666666667 56.5333333333333C104.5333333333334 40.5333333333333 78.9333333333334 24.5333333333333 54.4 9.6C53.3333333333334 9.6 52.2666666666667 8.5333333333333 51.2 7.4666666666666C52.2666666666667 12.8 54.4 18.1333333333333 55.4666666666667 23.4666666666666C61.8666666666667 48 68.2666666666667 71.4666666666666 73.6 96C74.6666666666667 98.1333333333333 73.6 99.2 72.5333333333334 100.2666666666667C50.1333333333334 119.4666666666667 27.7333333333334 137.6 5.3333333333334 156.8C5.3333333333334 160 4.2666666666667 161.0666666666667 3.2 161.0666666666667zM74.6666666666667 41.6C75.7333333333333 42.6666666666667 76.8 42.6666666666667 77.8666666666667 43.7333333333333L129.0666666666667 75.7333333333333C130.1333333333333 76.8 131.2 76.8 133.3333333333334 75.7333333333333L184.5333333333333 43.7333333333333C185.6 43.7333333333333 185.6 42.6666666666667 186.6666666666667 42.6666666666667V44.8C181.3333333333333 65.0666666666667 176 85.3333333333333 171.7333333333333 105.6C171.7333333333333 106.6666666666666 171.7333333333333 107.7333333333333 172.8 108.8C184.5333333333333 118.4 196.2666666666667 129.0666666666666 208 138.6666666666666C212.2666666666667 141.8666666666666 216.5333333333333 146.1333333333333 220.8 149.3333333333333H215.4666666666667L157.8666666666667 152.5333333333333C155.7333333333333 152.5333333333333 154.6666666666667 153.6 153.6 155.7333333333333C146.1333333333333 173.8666666666666 138.6666666666666 193.0666666666666 131.2 211.2C131.2 212.2666666666666 130.1333333333333 213.3333333333333 130.1333333333333 214.4C129.0666666666666 213.3333333333333 129.0666666666666 212.2666666666666 129.0666666666666 211.2C121.6 193.0666666666666 114.1333333333333 174.9333333333333 107.7333333333333 155.7333333333333C106.6666666666666 153.6 105.6 152.5333333333333 102.4 152.5333333333333L44.8 149.3333333333333H40.5333333333333C41.6 148.2666666666666 42.6666666666666 148.2666666666666 42.6666666666666 147.1999999999999C57.6 134.4 73.6 121.5999999999999 88.5333333333333 107.7333333333333C89.6 106.6666666666666 90.6666666666666 105.6 89.6 104.5333333333333C86.4 92.8 83.2 81.0666666666666 81.0666666666666 69.3333333333333C80 59.7333333333333 77.8666666666666 51.2 74.6666666666666 41.6z" />
    <glyph glyph-name="loading"
      unicode="&#xEA31;"
      horiz-adv-x="256" d="M6.1866666666667 256H11.36C14.7733333333333 256 17.5466666666667 253.2266666666667 17.5466666666667 249.8133333333334V192.7146666666667A127.93599999999999 127.93599999999999 0 0 0 128.4053333333333 256C198.8053333333334 255.7866666666667 256.1066666666667 198.1866666666667 256 127.7866666666667C255.8933333333333 57.2053333333333 198.624 0 128 0C95.008 0 64.928 12.48 42.24 32.9813333333333A6.207999999999998 6.207999999999998 0 0 0 41.984 41.984L45.632 45.632A6.1866666666666665 6.1866666666666665 0 0 0 54.1333333333334 45.8666666666667A110.016 110.016 0 0 1 128 17.5466666666667C188.768 17.5466666666667 238.4533333333333 66.752 238.4533333333333 128C238.4533333333333 188.768 189.248 238.4533333333334 128 238.4533333333334C85.2266666666667 238.4533333333334 48.1386666666667 214.1546666666667 29.7813333333333 178.5813333333334H88.768C92.192 178.5813333333334 94.9653333333333 175.808 94.9653333333333 172.3946666666667V167.2213333333334C94.9653333333333 163.808 92.192 161.0346666666667 88.7786666666667 161.0346666666667H6.1866666666667A6.1866666666666665 6.1866666666666665 0 0 0 0 167.2213333333334V249.8133333333334C0 253.2266666666667 2.7733333333333 256 6.1866666666667 256z" />
    <glyph glyph-name="play"
      unicode="&#xEA32;"
      horiz-adv-x="256" d="M70.4 232.5333333333334C67.168 234.9546666666667 62.848 235.3493333333334 59.232 233.5466666666667C55.616 231.7333333333334 53.3333333333333 228.0426666666667 53.3333333333333 224V32C53.3333333333333 27.9573333333333 55.616 24.2666666666667 59.232 22.4533333333333C60.736 21.7066666666667 62.3786666666667 21.3333333333333 64 21.3333333333333C66.2613333333333 21.3333333333333 68.5226666666667 22.0586666666667 70.4 23.4666666666667L198.4 119.4666666666667C201.088 121.472 202.6666666666667 124.64 202.6666666666667 128S201.088 134.5173333333334 198.4 136.5333333333333L70.4 232.5333333333334z" />
    <glyph glyph-name="quick-view"
      unicode="&#xEA34;"
      horiz-adv-x="256" d="M110.5 211.494C94.91 208.621 78.139 201.04 63.447 190.225C45.987 177.371 24.354 153.513 12.57 134.116L8.824 127.949L13.372 120.654C23.673 104.125 42.529 82.416 56.486 71.012C71.005 59.15 85.243 51.39 101.929 46.245C109.81 43.814 111.909 43.601 128 43.601C144.091 43.601 146.19 43.814 154.071 46.245C170.757 51.39 184.995 59.15 199.514 71.012C213.481 82.423 232.327 104.126 242.644 120.679L247.207 128L242.448 135.635C221.036 169.99 188.512 198.21 159.026 208.019C144.446 212.869 125.374 214.234 110.5 211.494M141.736 190.555C163.126 186.056 183.209 173.613 201.792 153.345C209.182 145.285 221.991 129.213 221.991 128C221.991 126.796 209.209 110.745 201.923 102.798C174.614 73.014 142.706 59.461 114.073 65.485C92.899 69.939 72.678 82.511 54.101 102.772C46.796 110.74 34.009 126.795 34.009 128C34.009 129.213 46.818 145.285 54.208 153.345C81.4 183.001 113.26 196.546 141.736 190.555M121.854 169.936C110.094 168.583 96.831 159.549 90.823 148.799C81.636 132.361 84.607 111.488 98.048 98.048C122.614 73.481 164.495 87.339 170.057 121.874C173.303 142.027 160.013 162.766 140 168.778C135.042 170.268 128.415 170.69 121.854 169.936M139.344 145.815C141.458 144.37 144.383 141.458 145.844 139.344C148.141 136.02 148.5 134.486 148.5 128C148.5 121.468 148.147 119.984 145.763 116.5C144.258 114.3 141.366 111.375 139.337 110C136.197 107.873 134.506 107.5 128 107.5C121.494 107.5 119.803 107.873 116.663 110C105.382 117.643 103.643 133.49 113.054 142.9C117.779 147.625 121.79 149.097 129 148.753C134.043 148.512 136.362 147.853 139.344 145.815" />
    <glyph glyph-name="loop-cart"
      unicode="&#xEA35;"
      horiz-adv-x="256" d="M117.5 255.028C105.86 252.447 97.811 247.769 89.293 238.633C78.902 227.487 75 217.294 75 201.29L75 192L54 192C40.163 192 33 191.646 33 190.963C33 189.492 10.143 6.084 9.544 2.75L9.05 0L103.775 0.017C209.806 0.037 206.106 -0.188 220.966 7.138C241.916 17.465 255.965 40.291 255.965 64C255.965 79.484 249.613 95.677 238.989 107.27L232.877 113.941L227.939 151.668C225.222 172.417 223 189.981 223 190.697C223 191.726 218.586 192 202 192L181 192L181 201.29C181 217.294 177.098 227.487 166.707 238.633C156.093 250.017 145.711 254.86 130.5 255.522C125.55 255.738 119.7 255.515 117.5 255.028M141 231.868C147.05 229.231 154.392 221.82 157.123 215.592C158.725 211.94 159.481 207.885 159.798 201.25L160.239 192L128 192L95.761 192L96.192 201.25C96.707 212.299 99.065 218.406 105.298 224.833C114.742 234.569 128.557 237.292 141 231.868M74.775 154.75L75.051 139L85.525 139L96 139L96 155L96 171L128 171L160 171L160 155L160 139L170.475 139L180.949 139L181.225 154.75L181.5 170.5L192.75 170.783C198.938 170.938 204.015 170.713 204.034 170.283C204.053 169.852 205.349 159.825 206.915 148C208.48 136.175 209.642 126.365 209.498 126.2C209.353 126.036 206.172 126.434 202.43 127.086C187.498 129.686 169.72 125.956 157.121 117.58C126.372 97.139 118.862 55.477 140.59 25.877L144.17 21L89.085 21L34 21L34 23.548C34 24.949 38.05 58.452 43 98C47.95 137.548 52 170.166 52 170.485C52 170.804 57.063 170.938 63.25 170.783L74.5 170.5L74.775 154.75M198.855 105.954C213.631 103.556 227.851 91.665 232.284 78C237.316 62.489 233.155 45.08 221.741 33.885C211.731 24.067 200.23 20.279 185.891 22.08C162.847 24.973 146.725 46.873 150.1 70.699C152.859 90.184 170 105.345 191 106.876C191.825 106.936 195.36 106.521 198.855 105.954M181 85.5L181 75L170.5 75L160 75L160 64L160 53L170.5 53L181 53L181 42.5L181 32L192 32L203 32L203 42.5L203 53L213.5 53L224 53L224 64L224 75L213.5 75L203 75L203 85.5L203 96L192 96L181 96L181 85.5" />
    <glyph glyph-name="configuration-tools"
      unicode="&#xEA36;"
      horiz-adv-x="256" d="M11 128L11 11L128 11L245 11L245 128L245 245L128 245L11 245L11 128M224 128L224 32L128 32L32 32L32 128L32 224L128 224L224 224L224 128M74.784 192.25L74.5 181.5L63.75 181.216L53 180.932L53 170.466L53 160L64 160L75 160L75 149.5L75 139L85.5 139L96 139L96 171L96 203L85.534 203L75.068 203L74.784 192.25M117 170.5L117 160L160 160L203 160L203 170.5L203 181L160 181L117 181L117 170.5M160 85L160 53L170.466 53L180.932 53L181.216 63.75L181.5 74.5L192.25 74.784L203 75.068L203 85.534L203 96L192 96L181 96L181 106.5L181 117L170.5 117L160 117L160 85M53 85.5L53 75L96 75L139 75L139 85.5L139 96L96 96L53 96L53 85.5" />
    <glyph glyph-name="setup-preferences"
      unicode="&#xEA37;"
      horiz-adv-x="256" d="M65 254.633C57.47 252.99 50.213 248.806 44.235 242.66C39.128 237.41 34 228.942 34 225.758C34 224.15 32.553 224 17 224L0 224L0 213.5L0 203L16.531 203C31.389 203 33.121 202.823 33.639 201.25C35.656 195.127 39.813 188.394 44.548 183.582C53.748 174.234 63.686 170.47 77.282 171.184C107.849 172.788 126.206 205.293 112.329 233.241C107.202 243.569 94.06 253.113 82.319 255.035C75.071 256.222 71.956 256.15 65 254.633M82.617 232.877C84.331 232.357 87.355 230.312 89.336 228.331C102.192 215.474 94.687 194.165 76.647 192.303C68.924 191.506 61.448 195.114 56.99 201.791C54.052 206.192 53.867 206.991 54.173 214C54.43 219.898 54.995 222.194 56.82 224.752C63.075 233.522 71.609 236.21 82.617 232.877M139 213.5L139 203L197.5 203L256 203L256 213.5L256 224L197.5 224L139 224L139 213.5M153.854 169.936C139.337 168.265 122.894 154.666 119.62 141.623L118.962 139L59.481 139L0 139L0 128L0 117L59.277 117L118.555 117L121.387 110.498C128.695 93.724 148.148 83.048 166.126 85.943C184.598 88.918 199.082 103.402 202.057 121.874C205.303 142.027 192.013 162.766 172 168.778C167.042 170.268 160.415 170.69 153.854 169.936M171.344 145.815C173.458 144.37 176.383 141.458 177.844 139.344C180.141 136.02 180.5 134.486 180.5 128C180.5 121.468 180.147 119.984 177.763 116.5C176.258 114.3 173.366 111.375 171.337 110C168.197 107.873 166.506 107.5 160 107.5C153.494 107.5 151.803 107.873 148.663 110C137.382 117.643 135.643 133.49 145.054 142.9C149.779 147.625 153.79 149.097 161 148.753C166.043 148.512 168.362 147.853 171.344 145.815M224 128L224 117L240 117L256 117L256 128L256 139L240 139L224 139L224 128M61.274 83.134C48.568 78.668 37.912 67.723 33.639 54.75C33.121 53.177 31.389 53 16.531 53L0 53L0 42.5L0 32L17 32C32.553 32 34 31.85 34 30.242C34 27.035 39.143 18.574 44.358 13.203C50.441 6.938 56.167 3.53 64.038 1.49C86.774 -4.401 109.715 9.182 115.968 32.236C118.136 40.23 116.953 52.367 113.231 60.319C109.078 69.195 101.188 77.079 92.274 81.26C86.38 84.024 84.266 84.472 76 84.704C68.809 84.906 65.229 84.525 61.274 83.134M85.84 60.601C102.389 50.154 97.161 25.104 77.696 21.578C71.611 20.476 63.945 23.212 59.579 28.044C54.895 33.229 54 35.691 54 43.394C54 48.704 54.465 50.359 57.052 54.265C63.401 63.85 76.223 66.672 85.84 60.601M139 42.5L139 32L197.5 32L256 32L256 42.5L256 53L197.5 53L139 53L139 42.5" />
    <glyph glyph-name="shopping-bag"
      unicode="&#xEA38;"
      horiz-adv-x="256" d="M117.5 255.028C105.86 252.447 97.811 247.769 89.293 238.633C78.902 227.487 75 217.294 75 201.29L75 192L54 192C40.163 192 33 191.646 33 190.963C33 189.492 10.143 6.084 9.544 2.75L9.05 0L128 0L246.95 0L246.456 2.75C245.857 6.084 223 189.492 223 190.963C223 191.646 215.837 192 202 192L181 192L181 201.29C181 217.294 177.098 227.487 166.707 238.633C156.093 250.017 145.711 254.86 130.5 255.522C125.55 255.738 119.7 255.515 117.5 255.028M141 231.868C147.05 229.231 154.392 221.82 157.123 215.592C158.725 211.94 159.481 207.885 159.798 201.25L160.239 192L128 192L95.761 192L96.192 201.25C96.707 212.299 99.065 218.406 105.298 224.833C114.742 234.569 128.557 237.292 141 231.868M74.775 154.75L75.051 139L85.525 139L96 139L96 155L96 171L128 171L160 171L160 155L160 139L170.475 139L180.949 139L181.225 154.75L181.5 170.5L192.75 170.783C198.938 170.938 204 170.804 204 170.485C204 170.166 208.05 137.548 213 98C217.95 58.452 222 24.949 222 23.548L222 21L128 21L34 21L34 23.548C34 24.949 38.05 58.452 43 98C47.95 137.548 52 170.166 52 170.485C52 170.804 57.063 170.938 63.25 170.783L74.5 170.5L74.775 154.75" />
    <glyph glyph-name="options"
      unicode="&#xEA39;"
      horiz-adv-x="256" d="M32 186.5L32 117L42.5 117L53 117L53 186.5L53 256L42.5 256L32 256L32 186.5M117 240L117 224L128 224L139 224L139 240L139 256L128 256L117 256L117 240M203 186.5L203 117L213.5 117L224 117L224 186.5L224 256L213.5 256L203 256L203 186.5M85.677 202.344C85.305 201.971 85 187.567 85 170.333L85 139L101 139L117 139L117 69.5L117 0L128 0L139 0L139 69.5L139 139L155.014 139L171.028 139L170.764 170.75L170.5 202.5L128.427 202.761C105.287 202.904 86.05 202.717 85.677 202.344M149 170.5L149 160L128 160L107 160L107 170.5L107 181L128 181L149 181L149 170.5M0 64L0 32L16 32L32 32L32 16L32 0L42.5 0L53 0L53 16L53 32L69 32L85 32L85 64L85 96L42.5 96L0 96L0 64M171 64L171 32L187 32L203 32L203 16L203 0L213.5 0L224 0L224 16L224 32L240 32L256 32L256 64L256 96L213.5 96L171 96L171 64M64 64L64 53L42.5 53L21 53L21 64L21 75L42.5 75L64 75L64 64M234.5 64L234.5 53.5L213.25 53.23L192 52.96L192 64L192 75.04L213.25 74.77L234.5 74.5L234.5 64" />
    <glyph glyph-name="slider-prev"
      unicode="&#xEA3A;"
      horiz-adv-x="496" d="M4.688 139.312A16 16 0 0 1 4.688 116.688L106.512 14.864A16 16 0 0 1 129.136 37.488L38.624 128L129.136 218.512A16 16 0 0 1 106.512 241.12L4.688 139.312zM496 144H16V112H496V144z" />
    <glyph glyph-name="slider-next"
      unicode="&#xEA3B;"
      horiz-adv-x="496" d="M491.312 139.312A16 16 0 0 0 491.312 116.688L389.488 14.864A16 16 0 0 0 366.864 37.488L457.376 128L366.864 218.512A16 16 0 0 0 389.488 241.12L491.312 139.296zM0 144H480V112H0V144z" />
  </font>
</defs>
</svg>
