<?xml version="1.0" encoding="UTF-8"?>
<svg width="26px" height="26px" viewBox="0 0 26 26" version="1.1" xmlns="http://www.w3.org/2000/svg" xmlns:xlink="http://www.w3.org/1999/xlink">
    <!-- Generator: Sketch 52.5 (67469) - http://www.bohemiancoding.com/sketch -->
    <title>instagram</title>
    <desc>Created with Sketch.</desc>
    <g id="Symbols" stroke="none" stroke-width="1" fill="none" fill-rule="evenodd">
        <g id="social-footer" transform="translate(-152.000000, -2.000000)">
            <g id="instagram">
                <g transform="translate(150.000000, 0.000000)">
                    <g id="Bounding_Boxes">
                        <polygon id="Shape" points="0 0 30 0 30 30 0 30"></polygon>
                    </g>
                    <circle id="c2/instagram" fill="#FF002E" cx="21.25" cy="8.75" r="1.25"></circle>
                    <path d="M10,5 C7.23857625,5 5,7.23857625 5,10 L5,20 C5,22.7614237 7.23857625,25 10,25 L20,25 C22.7614237,25 25,22.7614237 25,20 L25,10 C25,7.23857625 22.7614237,5 20,5 L10,5 Z M10,2.5 L20,2.5 C24.1421356,2.5 27.5,5.85786438 27.5,10 L27.5,20 C27.5,24.1421356 24.1421356,27.5 20,27.5 L10,27.5 C5.85786438,27.5 2.5,24.1421356 2.5,20 L2.5,10 C2.5,5.85786438 5.85786438,2.5 10,2.5 Z M12.6630262,20.7980708 C12.022793,20.5398213 11.7131341,19.8114572 11.9713836,19.171224 C12.2296331,18.5309908 12.9579972,18.2213319 13.5982304,18.4795814 C14.0391226,18.6574232 14.5120901,18.75 15,18.75 C17.0710678,18.75 18.75,17.0710678 18.75,15 C18.75,12.9289322 17.0710678,11.25 15,11.25 C12.9289322,11.25 11.25,12.9289322 11.25,15 C11.25,15.4893903 11.3431402,15.963746 11.5220335,16.4057666 C11.7810255,17.0456998 11.4722116,17.7744226 10.8322784,18.0334145 C10.1923452,18.2924065 9.46362238,17.9835926 9.20463044,17.3436594 C8.90564374,16.6049047 8.75,15.8122237 8.75,15 C8.75,11.5482203 11.5482203,8.75 15,8.75 C18.4517797,8.75 21.25,11.5482203 21.25,15 C21.25,18.4517797 18.4517797,21.25 15,21.25 C14.190243,21.25 13.3998966,21.0953007 12.6630262,20.7980708 Z" id="c1/instagram" fill="#000000"></path>
                </g>
            </g>
        </g>
    </g>
</svg>