<?xml version="1.0" encoding="UTF-8"?>
<svg width="25px" height="25px" viewBox="0 0 25 25" version="1.1" xmlns="http://www.w3.org/2000/svg" xmlns:xlink="http://www.w3.org/1999/xlink">
    <!-- Generator: Sketch 52.5 (67469) - http://www.bohemiancoding.com/sketch -->
    <title>pinterest</title>
    <desc>Created with Sketch.</desc>
    <g id="Symbols" stroke="none" stroke-width="1" fill="none" fill-rule="evenodd">
        <g id="social-footer" transform="translate(-103.000000, -3.000000)">
            <g id="pinterest">
                <g transform="translate(100.000000, 0.000000)">
                    <g id="Bounding_Boxes">
                        <polygon id="Shape" points="0 0 30 0 30 30 0 30"></polygon>
                    </g>
                    <path d="M5.26691577,22.9509065 C4.85085846,22.4371609 4.92987358,21.6832633 5.44340098,21.2670292 C5.95692838,20.8507951 6.71050568,20.9298438 7.12656299,21.4435894 C7.55147752,21.9682719 8.03070537,22.4471971 8.55561299,22.8717348 C9.06958077,23.2874245 9.14939401,24.0412379 8.73388084,24.5554241 C8.31836768,25.0696103 7.56487449,25.1494575 7.0509067,24.7337678 C6.39559002,24.2037571 5.79739526,23.6059401 5.26691577,22.9509065 Z" id="c2/pinterest" fill="#FF002E"></path>
                    <path d="M10.5301309,25.8497181 L10.5293541,25.8474045 L13.085175,15.2027094 C13.260734,14.5172249 13.9341931,14.110428 14.589388,14.294103 C15.244583,14.477778 15.6334047,15.182371 15.4578458,15.8678554 L14.6064189,19.1802866 C14.8986103,19.2264808 15.1972505,19.25 15.5,19.25 C18.2890715,19.25 20.5,17.2601644 20.5,14.875 C20.5,12.4898356 18.2890715,10.5 15.5,10.5 C12.7109285,10.5 10.5,12.4898356 10.5,14.875 C10.5,15.364305 10.5915859,15.8412546 10.7694248,16.2938217 C11.0219099,16.9363499 10.7057175,17.6619017 10.0631893,17.9143868 C9.42066101,18.166872 8.69510927,17.8506796 8.44262411,17.2081513 C8.15110332,16.4662846 8,15.6793878 8,14.875 C8,11.0469609 11.3855122,8 15.5,8 C19.6144878,8 23,11.0469609 23,14.875 C23,18.7030391 19.6144878,21.75 15.5,21.75 C14.9857206,21.75 14.4777966,21.7024606 13.982114,21.6091119 L13.0590408,25.2002793 C13.8494209,25.3984681 14.6673141,25.5 15.5,25.5 C21.0228475,25.5 25.5,21.0228475 25.5,15.5 C25.5,9.9771525 21.0228475,5.5 15.5,5.5 C9.9771525,5.5 5.5,9.9771525 5.5,15.5 C5.5,16.6509545 5.69397994,17.7736444 6.06906047,18.8344727 C6.29919062,19.4853424 5.95811379,20.1995339 5.30724404,20.4296641 C4.65637429,20.6597943 3.94218275,20.3187174 3.7120526,19.6678477 C3.24266151,18.3402839 3,16.9358415 3,15.5 C3,8.59644063 8.59644063,3 15.5,3 C22.4035594,3 28,8.59644063 28,15.5 C28,22.4035594 22.4035594,28 15.5,28 C14.0657139,28 12.6627532,27.7578642 11.3364457,27.2894645 C10.7369095,27.0777319 10.4000083,26.4552921 10.5301309,25.8497181 Z" id="c1/pinterest" fill="#000000"></path>
                </g>
            </g>
        </g>
    </g>
</svg>