<?xml version="1.0" encoding="UTF-8"?>
<svg width="26px" height="24px" viewBox="0 0 26 24" version="1.1" xmlns="http://www.w3.org/2000/svg" xmlns:xlink="http://www.w3.org/1999/xlink">
    <!-- Generator: Sketch 52.5 (67469) - http://www.bohemiancoding.com/sketch -->
    <title>twitter</title>
    <desc>Created with Sketch.</desc>
    <g id="Symbols" stroke="none" stroke-width="1" fill="none" fill-rule="evenodd">
        <g id="social-footer" transform="translate(-52.000000, -3.000000)">
            <g id="twitter">
                <g transform="translate(50.000000, 0.000000)">
                    <g id="Bounding_Boxes">
                        <polygon id="Shape" points="0 0 30 0 30 30 0 30"></polygon>
                    </g>
                    <path d="M5.97507879,11.4182001 C6.66495024,11.4440592 7.20323856,12.0242735 7.1773794,12.714145 C7.15152025,13.4040164 6.57130594,13.9423048 5.88143449,13.9164456 C4.90527431,13.8798552 3.96438198,13.6036047 3.12706253,13.1196219 C2.52936874,12.7741462 2.32490557,12.0095563 2.67038126,11.4118625 C3.01585695,10.8141687 3.78044688,10.6097055 4.37814067,10.9551812 C4.86611813,11.2372393 5.41036328,11.3970323 5.97507879,11.4182001 Z M7.25552548,15.8574846 C7.9180474,15.6634329 8.61243745,16.0432032 8.80648907,16.7057251 C9.0005407,17.368247 8.62077049,18.062637 7.95824858,18.2566887 C7.43945869,18.4086414 6.899153,18.484252 6.34088087,18.484252 C5.94870882,18.484252 5.5652736,18.4465236 5.19176818,18.37065 C4.51522999,18.2332186 4.07819762,17.5733658 4.21562907,16.8968276 C4.35306051,16.2202895 5.01291328,15.7832571 5.68945146,15.9206885 C5.89737109,15.9629252 6.11411657,15.984252 6.34088087,15.984252 C6.66412414,15.984252 6.96782256,15.9417523 7.25552548,15.8574846 Z" id="c2/twitter" fill="#FF002E"></path>
                    <path d="M25.4442596,11.2287096 C25.2537346,11.349411 25.0392342,11.4765163 24.9920068,11.7567285 C24.7422499,19.6617088 18.6626016,26.25 10,26.25 C7.74779071,26.25 4.60258007,25.450676 3.08643762,24.2108211 C2.73628115,23.9244738 2.5,23.595049 2.5,23.037824 C2.5,22.2417975 3.13447179,21.5649606 3.95891372,21.5649606 C5.14314579,21.5649606 7.56582458,20.384339 9.20570226,19.0348103 C9.7387618,18.5961318 10.5265111,18.6726427 10.9651897,19.2057023 C11.4038682,19.7387618 11.3273573,20.5265111 10.7942977,20.9651897 C9.67787099,21.8839472 8.30486316,22.7232256 6.98173633,23.2960765 C7.99488394,23.5754972 9.1134116,23.75 10,23.75 C17.4010025,23.75 22.5,18.0552216 22.5,11.25 C22.5,10.6533946 22.6420535,10.3475859 23.550378,9.67925815 C23.1865631,9.31523468 22.8659266,8.97165039 22.5884687,8.64850527 C22.4054494,8.4353495 21.7049587,7.58040201 21.568857,7.4284382 C20.8855359,6.66547928 20.0067888,6.25 19.0384538,6.25 C17.1078417,6.25 15.5091837,7.90805433 15.4780917,9.98746408 L15.4949599,10.1465174 C15.6120532,11.2525773 14.8103373,12.2441389 13.7042774,12.3612321 C13.5502567,12.3775376 13.3948691,12.376021 13.241196,12.3567124 C9.37979854,11.8715391 6.44643799,10.1464607 4.01322329,7.01731462 C3.58944713,6.4723329 3.68770365,5.68699946 4.23268538,5.26322329 C4.7776671,4.83944713 5.56300054,4.93770365 5.98677671,5.48268538 C7.89768052,7.94013284 10.0796413,9.3040556 12.9825923,9.79261722 C13.1121724,6.44754522 15.7636262,3.75 19.0384538,3.75 C20.7380276,3.75 22.2859392,4.48186605 23.431143,5.76053818 C23.6117109,5.96215034 24.3354907,6.84552214 24.4852276,7.01991528 C24.9398779,7.5494297 25.2441406,7.94496536 25.606167,8.10531721 C25.9681934,8.26566907 27.0549341,8.18972195 27.3659557,8.80604726 C27.6769773,9.42237257 27.4294797,10.1741358 26.8131544,10.4851574 C26.0052946,10.8928347 25.8599698,10.965349 25.4442596,11.2287096 Z" id="c1/twitter" fill="#000000"></path>
                </g>
            </g>
        </g>
    </g>
</svg>