<?xml version="1.0" encoding="UTF-8"?>
<svg width="26px" height="20px" viewBox="0 0 26 20" version="1.1" xmlns="http://www.w3.org/2000/svg" xmlns:xlink="http://www.w3.org/1999/xlink">
    <!-- Generator: Sketch 52.5 (67469) - http://www.bohemiancoding.com/sketch -->
    <title>youtube</title>
    <desc>Created with Sketch.</desc>
    <g id="Symbols" stroke="none" stroke-width="1" fill="none" fill-rule="evenodd">
        <g id="social-footer" transform="translate(-202.000000, -5.000000)">
            <g id="youtube">
                <g transform="translate(200.000000, 0.000000)">
                    <g id="Bounding_Boxes">
                        <polygon id="Shape" points="0 0 30 0 30 30 0 30"></polygon>
                    </g>
                    <path d="M13.75,16.5722414 L16.5,14.9998941 L13.75,13.4275468 L13.75,16.5722414 Z M19.323115,13.7978412 C19.9831703,14.1961665 20.1972024,15.0572503 19.8011693,15.7211258 C19.683467,15.9184317 19.5192856,16.0835633 19.323115,16.2019469 L13.3608371,19.8000185 C12.7007819,20.1983438 11.8446532,19.9830728 11.4486201,19.3191974 C11.3186534,19.1013326 11.25,18.8520375 11.25,18.5979657 L11.25,11.4018224 C11.25,10.6276173 11.8740057,10 12.6437557,10 C12.8963655,10 13.144226,10.0690507 13.3608371,10.1997696 L19.323115,13.7978412 Z" id="c2/youtube" fill="#FF002E"></path>
                    <path d="M12.5,22.5 C13.1903559,22.5 13.75,23.0596441 13.75,23.75 C13.75,24.4403559 13.1903559,25 12.5,25 L8.75,25 C5.29822031,25 2.5,22.2017797 2.5,18.75 L2.5,11.25 C2.5,7.79822031 5.29822031,5 8.75,5 L21.25,5 C24.7017797,5 27.5,7.79822031 27.5,11.25 L27.5,18.75 C27.5,22.2017797 24.7017797,25 21.25,25 L17.5,25 C16.8096441,25 16.25,24.4403559 16.25,23.75 C16.25,23.0596441 16.8096441,22.5 17.5,22.5 L21.25,22.5 C23.3210678,22.5 25,20.8210678 25,18.75 L25,11.25 C25,9.17893219 23.3210678,7.5 21.25,7.5 L8.75,7.5 C6.67893219,7.5 5,9.17893219 5,11.25 L5,18.75 C5,20.8210678 6.67893219,22.5 8.75,22.5 L12.5,22.5 Z" id="c1/youtube" fill="#000000"></path>
                </g>
            </g>
        </g>
    </g>
</svg>